<?xml version="1.0" encoding="UTF-8" ?>
<!DOCTYPE svg PUBLIC "-//W3C//DTD SVG 1.1//EN" "http://www.w3.org/Graphics/SVG/1.1/DTD/svg11.dtd">
<svg width="1663px" height="672px" viewBox="0 0 1663 672" version="1.1" xmlns="http://www.w3.org/2000/svg" xmlns:xlink="http://www.w3.org/1999/xlink">
    <g id="Page-1" stroke="none" stroke-width="1" fill="none" fill-rule="evenodd">
        <g id="logo" fill="#343a40" fill-rule="nonzero">
            <g id="#00aeefff" transform="translate(1172.000000, 0.000000)">
                <path d="M8.23,1.09 C10.27,-0.16 12.75,0.14 15.05,0.18 C37.84,1.1 60.52,3.6 83.17,6.23 C133.59,12.28 183.81,19.88 233.91,28.17 C282.65,36.36 331.32,45.06 379.59,55.73 C395.2,59.35 410.91,62.8 426.05,68.13 C429.5,69.55 433.73,70.71 435.48,74.37 C437.27,77.9 435.8,82.4 432.56,84.53 C408.91,102.9 385.5,121.57 361.56,139.55 C358.96,141.64 355.65,143.69 352.21,142.43 C330.1,135.87 307.75,130.16 285.44,124.36 C241,113.01 196.42,102.12 151.53,92.67 C104.04,82.77 56.13,74.98 8.06,68.52 C3.92,68.18 0.62,64.23 1.01,60.09 C1.34,42.69 1.77,25.23 4.1,7.96 C4.31,5.19 5.69,2.42 8.23,1.09 Z" id="Path"></path>
            </g>
            <g id="#0e76bcff" transform="translate(1086.000000, 1.000000)">
                <path d="M74.3,1.2 C78.17,-0.68 83.26,2.57 83.05,6.89 C81.95,23.96 80.94,41.03 79.97,58.11 C80.14,61.79 76.75,65.13 73.04,64.63 C50.73,62.92 28.41,61.29 6.11,59.47 C1.18,59 -1.04,52.06 2.69,48.81 C12.33,39.92 23.09,32.34 33.84,24.86 C46.83,16.2 59.89,7.36 74.3,1.2 Z" id="Path"></path>
            </g>
            <g id="#ed217cff" transform="translate(1067.000000, 70.000000)">
                <path d="M23.93,0.26 C34.05,-0.36 44.19,0.43 54.28,1.26 C78.56,3.45 102.69,6.94 126.77,10.66 C172.04,17.78 217.12,26.1 262.04,35.16 C305.03,43.92 347.94,53.21 390.42,64.23 C407.99,69 425.73,73.49 442.58,80.49 C447.45,82.75 453.36,85.17 455.04,90.81 C456.83,97.05 457.3,103.59 458,110.02 C460.1,133.61 460.91,157.29 461.71,180.95 C463.34,234.94 463.95,288.96 464.2,342.97 C464.31,398.66 464,454.35 462.35,510.02 C461.57,532.38 460.88,554.78 458.59,577.05 C457.77,583.08 457.39,589.34 454.92,594.98 C452.51,600.09 446.43,601.47 441.32,602 L436.91,602 C415.42,600.03 394.19,596.05 373.09,591.69 C334.62,583.66 296.46,574.23 258.43,564.37 C215.15,553.05 172.06,540.97 129.3,527.81 C99.2,518.41 69.09,508.84 39.89,496.9 C30.65,492.89 21.14,489.04 13.08,482.88 C9.87,480.56 7.91,476.91 7.47,473 C5.37,459.1 4.84,445.03 4.08,431.01 C1.75,378.38 1.17,325.69 0.78,273.02 C0.5,208.67 0.6,144.3 2.47,79.97 C3.25,58.93 3.79,37.83 6.38,16.92 C7.14,12.67 7.32,7.77 10.63,4.59 C14.2,1.3 19.29,0.66 23.93,0.26 Z M84.84,118.92 C76.54,134.08 81.2,154.99 95.76,164.59 C93.13,179.91 92.08,195.46 92.1,210.99 C92.34,248.63 98.51,286.69 113.75,321.29 C126.14,349.31 145.56,375.01 172.04,391.04 C188.98,401.43 208.34,407.56 228.03,409.89 C246.4,412.16 265.45,411.25 283.01,405.06 C297.51,400.02 310.64,391.26 321.06,380.01 C333.67,366.48 342.45,349.8 348.62,332.46 C362.28,293.2 364.53,251.05 363.62,209.82 C376.04,203.8 383.46,189.71 382.24,176.09 C381.42,163.17 372.86,150.69 360.39,146.54 C350.35,142.96 338.61,145.57 330.8,152.75 C319.79,162.44 316.42,179.35 322.2,192.72 C325.69,201.27 332.89,208.15 341.62,211.21 C342.33,240.22 341.08,269.44 335.24,297.93 C331.29,316.8 325.32,335.55 314.97,351.94 C307.11,364.46 296.06,375.21 282.58,381.5 C268.45,388.23 252.4,389.84 236.94,388.66 C217.6,387.23 198.38,381.63 181.97,371.14 C166.61,361.46 154.03,347.8 144.49,332.44 C126.8,303.84 118.47,270.41 115.28,237.2 C113.25,214.55 113.5,191.61 117.21,169.14 C130.87,166.69 141.54,154.56 143.27,140.96 C146.01,125.01 136.23,107.29 120.28,102.91 C106.54,98.65 91.12,106.28 84.84,118.92 Z" id="Shape"></path>
            </g>
            <g id="#fcb040ff" transform="translate(1533.000000, 89.000000)">
                <path d="M81.49,1.64 C85.57,-0.53 91.06,1.85 92.59,6.14 C94.69,11.5 95.44,17.26 96.43,22.9 C99.38,42.17 101.31,61.58 103.34,80.97 C108.87,136.26 113.37,191.64 117.58,247.05 C121.4,298.66 125.04,350.29 127.8,401.98 C128.72,422.67 130.09,443.39 129.44,464.11 C129.8,470.35 125,474.84 121.27,479.17 C109.35,491.99 96.22,503.6 83.12,515.19 C65.94,530.08 48.76,545.04 30.22,558.23 C25.08,561.62 19.98,565.5 13.94,567.07 C9.42,568.24 4.38,564.79 4.13,560.08 C7.19,509.79 7.32,459.37 8,409 C8.3,353.66 9.81,298.32 8.56,242.99 C7.32,185.59 4.65,128.23 0.89,70.95 C0.55,68.27 1.55,65.45 3.71,63.77 C20.54,49.89 37.44,36.08 54.44,22.41 C63.39,15.42 72.01,7.91 81.49,1.64 Z" id="Path"></path>
            </g>
            <g id="#231f20ff" transform="translate(0.000000, 193.000000)">
                <path d="M548.08,3.05 C553.97,-0.68 562.39,-0.44 567.55,4.48 C570.73,7.38 572.39,11.71 572.33,15.99 C572.36,118.33 572.3,220.67 572.35,323.01 C572.14,332.2 576.69,341.65 585,346.02 C592.94,349.99 602.25,349.73 610.82,348.49 C624.71,345.27 638.99,339.62 648.29,328.31 C655.13,320.09 659.83,309.77 660.03,298.96 C660.08,274.59 659.99,250.22 660.07,225.85 C660.18,217.73 666.46,210.3 674.35,208.58 C685.56,206.05 696.74,203.36 707.97,200.97 C716.57,199.12 725.63,206.16 725.72,215 C725.84,238.68 725.75,262.35 725.76,286.02 C725.7,291.74 726.31,297.69 729.15,302.76 C733.61,310.76 742.73,316.09 751.95,315.51 C763.16,315.12 773.24,308.69 780.52,300.51 C788.66,291.68 794.5,280.2 794.52,267.99 C794.57,243.99 794.53,219.99 794.54,196 C794.4,189.67 797.91,183.54 803.25,180.23 C806.37,178.15 810.16,177.61 813.74,176.77 C823.45,174.64 833.1,172.2 842.85,170.24 C851.23,168.69 859.93,175.43 860.21,184 C860.41,206.98 860.23,229.97 860.3,252.96 C860.3,259.04 859.73,265.54 862.82,271.07 C866.43,277.58 872.8,282.75 880.12,284.39 C889.61,286.22 899.42,282.78 907.05,277.18 C919.72,267.51 929.18,252.35 928.81,236.03 C928.82,203.68 928.78,171.34 928.83,139 C928.82,132.53 932.69,126.41 938.26,123.24 C947.44,117.76 956.63,112.29 965.81,106.81 C969.6,104.58 973.36,101.8 977.9,101.41 C984.1,100.55 990.71,103.85 993.41,109.57 C995.57,113.72 994.93,118.53 995.02,123.04 C995.04,158.37 994.98,193.71 995.05,229.04 C995.05,245.97 990.18,262.63 982.48,277.61 C969.96,301.38 951.85,322.95 928.16,336.16 C914.63,343.8 899.41,348.06 884.07,350.05 C872.38,351.41 860.35,350.54 849.17,346.77 C842.41,344.54 836.18,341.02 829.81,337.92 C818.62,347.83 807.39,357.93 794.27,365.26 C772.92,377.56 747.3,383.5 722.88,378.71 C712.81,376.82 703.31,372.82 693.92,368.85 C689.22,373.18 684.55,377.54 679.77,381.78 C665.43,394.22 647.97,402.59 629.92,408.11 C623.38,410.02 616.82,412.04 609.99,412.53 C592.48,415.42 574.05,415.5 557.14,409.56 C533.47,401.29 514.88,380.3 509.1,355.95 C505.55,342.58 506.46,328.65 506.35,314.97 C506.36,223.28 506.34,131.59 506.36,39.9 C506.23,33.56 509.78,27.43 515.14,24.11 C526.12,17.1 537.07,10.02 548.08,3.05 Z" id="Path"></path>
                <path d="M240.43,23.77 C250.21,21.63 261.01,22.95 269.43,28.56 C277.3,33.77 282.32,42.62 283.74,51.85 C287.14,74.42 271.77,97.11 250.68,104.66 C239.96,108.69 227.35,108.54 217.27,102.79 C209.19,98.2 203.68,89.85 201.66,80.88 C196.3,55.49 215.59,29.11 240.43,23.77 Z" id="Path"></path>
                <path d="M42.65,31.65 C48.28,28.56 55.81,28.92 60.73,33.2 C64.43,36.27 66.16,41.17 65.97,45.9 C65.94,123.59 65.98,201.29 65.95,278.98 C65.91,284.13 66.59,289.43 69.04,294.03 C72.42,300.53 78.94,305.2 86.18,306.32 C97.45,308.17 109,306.18 119.84,302.96 C129.23,300.86 138.6,298.68 148,296.57 C142.51,283.14 141.19,268.4 141.68,254.01 C142.91,231.32 152.93,210.1 165.57,191.59 C176.45,175.5 190.08,161.01 206.67,150.73 C226.6,138.38 250.5,131.94 273.95,134.02 C303.95,136.67 331.77,157.77 341.43,186.45 C348.63,207.88 347.21,231.6 339.87,252.8 C345.22,251.58 350.57,250.36 355.93,249.14 C367.2,246.44 378.9,244.72 389.3,239.29 C402.93,232.9 414,220.87 418.28,206.34 C420.58,198.76 419.78,190.78 419.92,182.99 C419.92,156.65 419.91,130.3 419.92,103.95 C419.67,97.2 423.55,90.7 429.39,87.4 C440.25,80.94 451.09,74.43 461.97,67.98 C467.12,64.84 474.05,64.5 479.21,67.82 C483.65,70.57 486.23,75.77 486.11,80.95 C486.12,115.96 486.15,150.98 486.1,185.99 C485.81,217.12 471.1,246.67 449.91,268.92 C428.24,291.49 398.49,305.42 367.83,310.43 C285.88,329.13 203.95,347.89 121.97,366.44 C100.58,371.84 77.73,374.88 56.11,368.97 C39.05,364.5 24.1,353.37 14.06,338.97 C5.04,326.17 0.82,310.55 0,295.04 L0,64.36 C0.74,58.29 4.49,52.75 9.9,49.9 C20.82,43.82 31.71,37.68 42.65,31.65 M246.49,199.73 C238.72,201.42 231.49,205.3 225.64,210.65 C216.71,218.9 209.54,229.76 207.94,242.01 C207.02,249.31 207.44,257.23 211.36,263.66 C216.3,271.53 225.7,276.47 235.02,275.72 C248.44,274.95 260.69,267.3 268.81,256.82 C277.67,246.22 282.1,231.61 278.95,217.97 C277.12,209.78 270.66,203.06 262.87,200.21 C257.62,198.3 251.86,198.54 246.49,199.73 Z" id="Shape"></path>
                <path d="M859.45,45.69 C869.29,43.8 880.07,45.77 888.1,51.93 C895.55,57.6 899.96,66.68 900.77,75.93 C902.56,97.39 887.8,118.5 867.58,125.35 C857.53,128.88 845.89,128.68 836.43,123.52 C826.49,118.1 820.26,107.11 819.57,95.94 C818.37,72.56 836.69,50.25 859.45,45.69 Z" id="Path"></path>
                <path d="M769.5,66.74 C778.86,64.93 789.09,66.49 797.02,71.96 C805.46,77.79 810.3,87.89 810.91,97.99 C812.06,118.65 798.19,138.74 778.93,145.92 C768.56,149.95 756.32,149.94 746.44,144.53 C737.17,139.46 731.33,129.4 730.07,119.07 C727.31,94.97 746.01,71.34 769.5,66.74 Z" id="Path"></path>
                <path d="M677.54,86.74 C687.27,84.37 698.03,85.95 706.41,91.54 C714.53,96.95 719.66,106.25 720.67,115.88 C722.8,137.13 708.37,158.1 688.67,165.55 C678.44,169.53 666.41,169.59 656.58,164.43 C647.13,159.47 641.11,149.36 639.78,138.93 C637.02,115.36 654.87,92.25 677.54,86.74 Z" id="Path"></path>
                <path d="M445.15,314.27 C454.93,313.03 465.4,315.62 472.86,322.21 C480.17,328.61 484.01,338.37 484.11,347.98 C484.25,368.71 469.59,388.34 449.9,394.61 C440.06,397.85 428.79,397.51 419.6,392.49 C409.66,387.07 403.43,376.08 402.74,364.92 C401.49,340.69 421.23,317.52 445.15,314.27 Z" id="Path"></path>
                <path d="M358.17,335.19 C367.64,334.22 377.75,336.69 384.96,343.11 C392.5,349.8 396.34,360.05 396.18,370.03 C395.78,391.08 380.34,410.7 360.04,416.22 C350.46,418.89 339.68,418.18 330.98,413.14 C320.87,407.25 315.08,395.51 314.96,384 C314.61,360.07 334.44,337.85 358.17,335.19 Z" id="Path"></path>
                <path d="M262.46,355.77 C272.26,353.31 283.13,354.87 291.59,360.51 C299.52,365.81 304.61,374.81 305.77,384.2 C308.26,405.54 293.9,426.78 274.16,434.41 C263.8,438.53 251.56,438.61 241.6,433.32 C232.28,428.36 226.35,418.38 224.97,408.08 C222.1,384.53 239.86,361.42 262.46,355.77 Z" id="Path"></path>
            </g>
        </g>
    </g>
</svg>