<?xml version="1.0" encoding="utf-8"?>
<!-- Generator: Adobe Illustrator 25.4.1, SVG Export Plug-In . SVG Version: 6.00 Build 0)  -->
<svg version="1.1" xmlns="http://www.w3.org/2000/svg" xmlns:xlink="http://www.w3.org/1999/xlink" x="0px" y="0px"
	 viewBox="0 0 640 640" style="enable-background:new 0 0 640 640;" xml:space="preserve">
<style type="text/css">
	.st0{display:none;}
	.st1{display:inline;}
	.st2{fill:#E8EAF6;}
	.st3{fill:#424242;}
	.st4{fill:#FFC107;}
	.st5{fill:none;}
	.st6{fill:#ECEFF1;}
	.st7{fill:#5E35B1;}
	.st8{fill:#C5CAE9;}
	.st9{clip-path:url(#SVGID_00000135653693608958701040000014527377135897311143_);}
	.st10{clip-path:url(#SVGID_00000119840293174078343120000010052038181003751555_);}
	.st11{clip-path:url(#SVGID_00000035520315148243493350000000066417387955590304_);}
	.st12{clip-path:url(#SVGID_00000127018359637383687480000002289845821751341487_);}
	.st13{opacity:0.47;}
	.st14{fill:#D6D6D6;}
	.st15{fill:#52D400;stroke:#000000;stroke-width:7;stroke-miterlimit:10;}
	.st16{fill:none;stroke:#000000;stroke-width:7;stroke-miterlimit:10;}
	.st17{fill:#FFFFFF;stroke:#000000;stroke-width:7;stroke-miterlimit:10;}
	.st18{display:inline;fill:#FFFFFF;stroke:#000000;stroke-width:7;stroke-miterlimit:10;}
	.st19{fill:#FFD700;}
</style>
<g id="Layer_1" class="st0">
	<g class="st1">
		<path class="st2" d="M623.3,75c0.1-1.7,0.2-3.4,0.2-5.1c0-35.1-28.5-63.6-63.6-63.6c-28.1,0-52,18.3-60.4,43.6
			c-1.1-0.1-2.1-0.2-3.2-0.2c-23.1,0-41.9,18.8-41.9,41.9s18.8,41.9,41.9,41.9h99.4c19.8,0,35.8-16,35.8-35.8
			C631.5,89.1,628.4,81.2,623.3,75z"/>
		<path class="st3" d="M595.7,136.2h-99.4c-24.6,0-44.6-20-44.6-44.7c0-24.6,20-44.7,44.6-44.7c0.5,0,0.9,0,1.3,0
			c9.6-26.1,34.3-43.5,62.3-43.5c36.6,0,66.4,29.8,66.4,66.4c0,1.3,0,2.7-0.2,4.3c5.2,6.7,8.1,15.1,8.1,23.6
			C634.2,118.9,616.9,136.2,595.7,136.2z M496.3,52.4c-21.6,0-39.2,17.6-39.2,39.2s17.6,39.2,39.2,39.2h99.4c18.2,0,33-14.8,33-33
			c0-7.6-2.7-15.1-7.5-21c-0.5-0.6-0.7-1.3-0.6-2c0.1-1.8,0.2-3.4,0.2-4.9c0-33.6-27.3-60.9-60.9-60.9c-26.3,0-49.5,16.8-57.8,41.7
			c-0.4,1.2-1.6,2-2.8,1.9C498.3,52.5,497.3,52.4,496.3,52.4z"/>
	</g>
	<g class="st1">
		<path class="st2" d="M160.6,141.1c-1.2,0-2.4,0.1-3.6,0.2c-8-21.3-28.6-36.5-52.7-36.5S59.6,120,51.6,141.3
			c-1.2-0.1-2.4-0.2-3.7-0.2c-21.1,0-38.2,17.1-38.2,38.2s17.1,38.2,38.2,38.2h112.7c21.1,0,38.2-17.1,38.2-38.2
			S181.7,141.1,160.6,141.1z"/>
		<path class="st3" d="M160.6,221.4H47.9c-23.2,0-42.1-18.9-42.1-42.1s18.9-42.1,42.1-42.1c0.3,0,0.7,0,1.1,0
			c9.5-21.9,31.3-36.4,55.3-36.4s45.8,14.5,55.3,36.4c0.4,0,0.7,0,1.1,0c23.2,0,42.1,18.9,42.1,42.1S183.9,221.4,160.6,221.4z
			 M47.9,145.1c-18.9,0-34.2,15.4-34.2,34.2s15.4,34.2,34.2,34.2h112.7c18.9,0,34.2-15.4,34.2-34.2s-15.4-34.2-34.2-34.2
			c-1.1,0-2.2,0.1-3.3,0.2c-1.8,0.2-3.4-0.9-4.1-2.5c-7.6-20.3-27.3-34-49-34s-41.4,13.7-49,34c-0.6,1.7-2.3,2.7-4.1,2.5
			C50.1,145.1,49,145.1,47.9,145.1z"/>
	</g>
	<g class="st1">
		<g>
			<path class="st4" d="M602.7,432.7c0-0.2,0-0.4,0-0.6c0.4-20.9-16.2-38.8-37-39.9c-22.5-1.2-41.2,16.8-41.2,39
				c0,0.8,0,1.6,0.1,2.4c1,17-4.8,33.8-15.1,47.5c-9.2,12.2-14.3,27.7-13.3,44.3c2,34.7,30.7,62.6,65.4,63.6
				c38.3,1.1,69.6-29.5,69.6-67.5c0-15.2-5-29.2-13.5-40.5C607.3,467.1,602.1,450.1,602.7,432.7z"/>
			<path class="st3" d="M563.7,592.1c-0.7,0-1.4,0-2.2,0c-36.3-1.1-66.3-30.3-68.3-66.4c-0.9-16.6,4-33.1,13.9-46.3
				c10.3-13.7,15.4-29.9,14.5-45.5c0-0.8-0.1-1.7-0.1-2.5c0-11.6,4.7-22.5,13.1-30.5c8.5-8,19.5-12.1,31.2-11.5
				c22.4,1.2,40.3,20.4,39.8,42.9v0.6c-0.6,16.8,4.5,33.3,14.4,46.5c9.2,12.3,14.1,26.9,14.1,42.3c0,19.2-7.6,37.2-21.4,50.6
				C599.5,585,582.1,592.1,563.7,592.1z M563.7,395.1c-9.3,0-18.1,3.5-24.8,9.9c-7.3,6.9-11.3,16.2-11.3,26.2c0,0.7,0,1.5,0.1,2.2
				c1,17-4.5,34.6-15.7,49.4c-9.1,12.1-13.6,27.2-12.8,42.4c1.9,33.1,29.3,59.8,62.5,60.8c17.6,0.5,34.3-6,46.9-18.2
				c12.6-12.3,19.6-28.7,19.6-46.3c0-14.1-4.5-27.5-12.9-38.7c-10.7-14.3-16.3-32.1-15.6-50.3l0,0V432c0.4-19.3-14.9-35.8-34.2-36.8
				C564.9,395.2,564.3,395.1,563.7,395.1z"/>
		</g>
		<g>
			<line class="st5" x1="563.7" y1="490.7" x2="563.7" y2="632.5"/>
			<path class="st3" d="M563.7,635.5c-1.7,0-3-1.3-3-3V490.7c0-1.6,1.3-3,3-3s3,1.3,3,3v141.8C566.6,634.2,565.3,635.5,563.7,635.5z
				"/>
		</g>
		<g>
			<line class="st5" x1="537.6" y1="533.1" x2="563.7" y2="550.3"/>
			<path class="st3" d="M563.7,553.3c-0.6,0-1.1-0.2-1.6-0.5L536,535.6c-1.4-0.9-1.8-2.8-0.8-4.1c0.9-1.4,2.8-1.8,4.1-0.8l26.1,17.2
				c1.4,0.9,1.8,2.8,0.8,4.1C565.6,552.8,564.6,553.3,563.7,553.3z"/>
		</g>
		<g>
			<line class="st5" x1="530.9" y1="632.5" x2="596.4" y2="632.5"/>
			<path class="st3" d="M596.4,635.5h-65.5c-1.7,0-3-1.3-3-3s1.3-3,3-3h65.5c1.7,0,3,1.3,3,3S598.1,635.5,596.4,635.5z"/>
		</g>
	</g>
	<g class="st1">
		<g>
			<path class="st4" d="M115.4,432.7c0-0.2,0-0.4,0-0.6c0.4-20.9-16.2-38.8-37-39.9c-22.5-1.2-41.2,16.8-41.2,39
				c0,0.8,0,1.6,0.1,2.4c1,17-4.8,33.8-15.1,47.5C13,493.3,7.9,508.8,8.9,525.4c1.9,34.7,30.6,62.6,65.4,63.6
				c38.3,1.1,69.6-29.5,69.6-67.5c0-15.2-5-29.2-13.5-40.5C120,467.1,114.8,450.1,115.4,432.7z"/>
			<path class="st3" d="M76.3,592.1c-0.7,0-1.4,0-2.2,0C37.9,591,7.9,561.8,5.9,525.6c-0.9-16.6,4-33.1,13.9-46.3
				c10.3-13.7,15.4-29.9,14.5-45.5c0-0.8-0.1-1.7-0.1-2.5c0-11.6,4.7-22.5,13.1-30.5c8.5-8,19.5-12.1,31.2-11.5
				c22.4,1.2,40.3,20.4,39.8,42.9v0.6c-0.6,16.8,4.5,33.3,14.4,46.5c9.2,12.3,14.1,26.9,14.1,42.3c0,19.2-7.6,37.2-21.4,50.6
				C112.2,585,94.8,592.1,76.3,592.1z M76.3,395.1c-9.3,0-18.1,3.5-24.8,9.9c-7.3,6.9-11.3,16.2-11.3,26.2c0,0.7,0,1.5,0.1,2.2
				c1,17-4.5,34.6-15.7,49.4C15.5,495,11,510,11.9,525.3c1.9,33.1,29.3,59.8,62.5,60.8c17.6,0.5,34.3-6,46.9-18.2
				c12.6-12.3,19.6-28.7,19.6-46.3c0-14.1-4.4-27.5-12.9-38.7c-10.7-14.3-16.3-32.1-15.6-50.3l0,0v-0.5
				c0.4-19.3-14.9-35.8-34.2-36.8C77.6,395.2,77,395.1,76.3,395.1z"/>
		</g>
		<g>
			<line class="st5" x1="76.3" y1="490.7" x2="76.3" y2="632.5"/>
			<path class="st3" d="M76.3,635.5c-1.7,0-3-1.3-3-3V490.7c0-1.6,1.3-3,3-3s3,1.3,3,3v141.8C79.3,634.2,78,635.5,76.3,635.5z"/>
		</g>
		<g>
			<line class="st5" x1="50.3" y1="533.1" x2="76.3" y2="550.3"/>
			<path class="st3" d="M76.3,553.3c-0.6,0-1.1-0.2-1.6-0.5l-26.1-17.2c-1.4-0.9-1.8-2.8-0.8-4.1c0.9-1.4,2.8-1.8,4.1-0.8L78,547.8
				c1.4,0.9,1.8,2.8,0.8,4.1C78.3,552.8,77.3,553.3,76.3,553.3z"/>
		</g>
		<g>
			<line class="st5" x1="43.6" y1="632.5" x2="109.1" y2="632.5"/>
			<path class="st3" d="M109.1,635.5H43.6c-1.7,0-3-1.3-3-3s1.3-3,3-3h65.5c1.7,0,3,1.3,3,3S110.8,635.5,109.1,635.5z"/>
		</g>
	</g>
	<g class="st1">
		<g>
			<rect x="99.2" y="425.9" class="st6" width="440.3" height="206.6"/>
			<path class="st3" d="M539.5,635.5H99.2c-1.7,0-3-1.3-3-3V425.9c0-1.6,1.3-3,3-3h440.3c1.7,0,3,1.3,3,3v206.6
				C542.5,634.2,541.1,635.5,539.5,635.5z M102.2,629.5h434.3V428.9H102.2V629.5z"/>
		</g>
		<g>
			<rect x="267.4" y="425.9" class="st6" width="108.6" height="206.6"/>
			<path class="st3" d="M376,635.5H267.4c-1.6,0-3-1.3-3-3V425.9c0-1.6,1.3-3,3-3H376c1.6,0,3,1.3,3,3v206.6
				C379,634.2,377.7,635.5,376,635.5z M270.4,629.5H373V428.9H270.4V629.5z"/>
		</g>
		<g>
			<path class="st4" d="M362.9,553.3h-11.6c-0.4,0-0.7-0.3-0.7-0.7v-36c0-0.4,0.3-0.7,0.7-0.7h11.6c0.4,0,0.7,0.3,0.7,0.7v36
				C363.6,553,363.3,553.3,362.9,553.3z"/>
			<path class="st3" d="M357.1,556.3c-5.2,0-9.5-4.3-9.5-9.5v-24.5c0-5.2,4.3-9.5,9.5-9.5s9.5,4.3,9.5,9.5v24.5
				C366.6,552.1,362.3,556.3,357.1,556.3z M357.1,518.8c-2,0-3.5,1.6-3.5,3.5v24.5c0,2,1.6,3.5,3.5,3.5s3.5-1.6,3.5-3.5v-24.5
				C360.6,520.4,359,518.8,357.1,518.8z"/>
		</g>
		<g>
			<line class="st5" x1="76.3" y1="632.5" x2="563.7" y2="632.5"/>
			<path class="st3" d="M563.7,635.5H76.3c-1.7,0-3-1.3-3-3s1.3-3,3-3h487.3c1.7,0,3,1.3,3,3S565.3,635.5,563.7,635.5z"/>
		</g>
		<g>
			<rect x="102.8" y="239" class="st7" width="436.4" height="62"/>
			<path class="st3" d="M539.1,304H102.8c-1.7,0-3-1.3-3-3v-62c0-1.6,1.3-3,3-3h436.4c1.7,0,3,1.3,3,3v62
				C542.1,302.7,540.8,304,539.1,304z M105.7,298h430.4v-56H105.7V298z"/>
		</g>
		<g>
			<g>
				<polygon class="st8" points="539.5,553.3 466.9,553.3 394.3,553.3 394.3,425.9 539.5,425.9 				"/>
				<path class="st3" d="M539.5,556.3H394.3c-1.6,0-3-1.3-3-3V425.9c0-1.6,1.3-3,3-3h145.1c1.7,0,3,1.3,3,3v127.5
					C542.5,555,541.1,556.3,539.5,556.3z M397.3,550.4h139.2V428.9H397.3V550.4z"/>
			</g>
			<g>
				<g>
					<g>
						<g>
							<defs>
								<polygon id="SVGID_1_" points="539.5,553.2 466.9,553.2 394.3,553.2 394.3,426.8 539.5,426.8 								"/>
							</defs>
							<clipPath id="SVGID_00000160877868219821651860000008807005127337870764_">
								<use xlink:href="#SVGID_1_"  style="overflow:visible;"/>
							</clipPath>
							<g style="clip-path:url(#SVGID_00000160877868219821651860000008807005127337870764_);">
								<polygon class="st2" points="392.8,560.7 373.1,541.1 495.9,419.4 515.6,439 								"/>
							</g>
						</g>
					</g>
				</g>
				<g>
					<g>
						<g>
							<defs>
								<polygon id="SVGID_00000053510093883853512720000007141421892967666344_" points="539.5,553.2 466.9,553.2 394.3,553.2 
									394.3,426.8 539.5,426.8 								"/>
							</defs>
							<clipPath id="SVGID_00000108287845646782472200000017967031469165226136_">
								<use xlink:href="#SVGID_00000053510093883853512720000007141421892967666344_"  style="overflow:visible;"/>
							</clipPath>
							<g style="clip-path:url(#SVGID_00000108287845646782472200000017967031469165226136_);">
								<polygon class="st2" points="458.4,599.4 423.2,564.5 540.3,448.3 575.6,483.2 								"/>
							</g>
						</g>
					</g>
				</g>
			</g>
			<g>
				<path class="st3" d="M539.5,556.3H394.3c-1.6,0-3-1.3-3-3V425.9c0-1.6,1.3-3,3-3h145.1c1.7,0,3,1.3,3,3v127.5
					C542.5,555,541.1,556.3,539.5,556.3z M397.3,550.4h139.2V428.9H397.3V550.4z"/>
			</g>
			<g>
				<line class="st5" x1="466.9" y1="425.9" x2="466.9" y2="553.3"/>
				<path class="st3" d="M466.9,556.3c-1.6,0-3-1.3-3-3V425.9c0-1.6,1.3-3,3-3c1.6,0,3,1.3,3,3v127.5
					C469.9,555,468.5,556.3,466.9,556.3z"/>
			</g>
		</g>
		<g>
			<g>
				<polygon class="st8" points="244.4,553.3 171.8,553.3 99.2,553.3 99.2,425.9 244.4,425.9 				"/>
				<path class="st3" d="M244.4,556.3H99.2c-1.7,0-3-1.3-3-3V425.9c0-1.6,1.3-3,3-3h145.1c1.6,0,3,1.3,3,3v127.5
					C247.3,555,246,556.3,244.4,556.3z M102.2,550.4h139.2V428.9H102.2V550.4z"/>
			</g>
			<g>
				<g>
					<g>
						<g>
							<defs>
								<polygon id="SVGID_00000104700888874068948150000016059180586879140010_" points="244.4,553.2 171.8,553.2 99.2,553.2 
									99.2,426.8 244.4,426.8 								"/>
							</defs>
							<clipPath id="SVGID_00000106109945221194214160000014214097127325682051_">
								<use xlink:href="#SVGID_00000104700888874068948150000016059180586879140010_"  style="overflow:visible;"/>
							</clipPath>
							<g style="clip-path:url(#SVGID_00000106109945221194214160000014214097127325682051_);">
								<polygon class="st2" points="97.7,560.7 78,541.1 200.8,419.4 220.5,439 								"/>
							</g>
						</g>
					</g>
				</g>
				<g>
					<g>
						<g>
							<defs>
								<polygon id="SVGID_00000093883647762161976170000015740384574757387438_" points="244.4,553.2 171.8,553.2 99.2,553.2 
									99.2,426.8 244.4,426.8 								"/>
							</defs>
							<clipPath id="SVGID_00000151527179839226102140000012856461666958527361_">
								<use xlink:href="#SVGID_00000093883647762161976170000015740384574757387438_"  style="overflow:visible;"/>
							</clipPath>
							<g style="clip-path:url(#SVGID_00000151527179839226102140000012856461666958527361_);">
								<polygon class="st2" points="163.3,599.4 128.1,564.5 245.2,448.3 280.5,483.2 								"/>
							</g>
						</g>
					</g>
				</g>
			</g>
			<g>
				<path class="st3" d="M244.4,556.3H99.2c-1.7,0-3-1.3-3-3V425.9c0-1.6,1.3-3,3-3h145.1c1.6,0,3,1.3,3,3v127.5
					C247.3,555,246,556.3,244.4,556.3z M102.2,550.4h139.2V428.9H102.2V550.4z"/>
			</g>
			<g>
				<line class="st5" x1="171.8" y1="425.9" x2="171.8" y2="553.3"/>
				<path class="st3" d="M171.8,556.3c-1.6,0-3-1.3-3-3V425.9c0-1.6,1.3-3,3-3s3,1.3,3,3v127.5C174.8,555,173.4,556.3,171.8,556.3z"
					/>
			</g>
		</g>
		<g>
			<g>
				<path class="st7" d="M100.4,467.5L100.4,467.5c-18.8,0-34-15.2-34-34V335h72.7v93.9C139.1,450.2,121.8,467.5,100.4,467.5z"/>
				<path class="st3" d="M102.8,470.5c-21.7,0-39.3-17.6-39.3-39.3V335c0-1.6,1.3-3,3-3h72.7c1.6,0,3,1.3,3,3v96.2
					C142.1,452.8,124.4,470.5,102.8,470.5z M69.4,337.9v93.2c0,18.4,15,33.4,33.4,33.4s33.4-15,33.4-33.4v-93.2L69.4,337.9
					L69.4,337.9z"/>
			</g>
			<g>
				<path class="st7" d="M173.9,467.5L173.9,467.5c-19.2,0-34.7-15.5-34.7-34.7V335h72.7v94.6C211.9,450.5,194.8,467.5,173.9,467.5z
					"/>
				<path class="st3" d="M175.5,470.5c-21.7,0-39.3-17.6-39.3-39.3V335c0-1.6,1.3-3,3-3h72.7c1.6,0,3,1.3,3,3v96.2
					C214.8,452.8,197.2,470.5,175.5,470.5z M142.1,337.9v93.2c0,18.4,15,33.4,33.4,33.4s33.4-15,33.4-33.4v-93.2L142.1,337.9
					L142.1,337.9z"/>
			</g>
			<g>
				<path class="st7" d="M246.5,467.5L246.5,467.5c-19.1,0-34.6-15.5-34.6-34.6V335h72.7v94.5C284.6,450.4,267.5,467.5,246.5,467.5z
					"/>
				<path class="st3" d="M248.2,470.5c-21.7,0-39.3-17.6-39.3-39.3V335c0-1.6,1.3-3,3-3h72.7c1.6,0,3,1.3,3,3v96.2
					C287.6,452.8,269.9,470.5,248.2,470.5z M214.8,337.9v93.2c0,18.4,15,33.4,33.4,33.4s33.4-15,33.4-33.4v-93.2L214.8,337.9
					L214.8,337.9z"/>
			</g>
			<g>
				<path class="st7" d="M320.8,467.5L320.8,467.5c-20,0-36.2-16.2-36.2-36.2v-96.4h72.7v96C357.3,451.1,340.9,467.5,320.8,467.5z"
					/>
				<path class="st3" d="M320.9,470.5c-21.7,0-39.3-17.6-39.3-39.3V335c0-1.6,1.3-3,3-3h72.7c1.6,0,3,1.3,3,3v96.2
					C360.3,452.8,342.6,470.5,320.9,470.5z M287.6,337.9v93.2c0,18.4,15,33.4,33.4,33.4s33.4-15,33.4-33.4v-93.2L287.6,337.9
					L287.6,337.9z"/>
			</g>
			<g>
				<path class="st7" d="M395,467.5L395,467.5c-20.8,0-37.7-16.9-37.7-37.7V335H430v97.6C430,451.8,414.4,467.5,395,467.5z"/>
				<path class="st3" d="M393.7,470.5c-21.7,0-39.3-17.6-39.3-39.3V335c0-1.6,1.3-3,3-3H430c1.6,0,3,1.3,3,3v96.2
					C433,452.8,415.4,470.5,393.7,470.5z M360.3,337.9v93.2c0,18.4,15,33.4,33.4,33.4s33.4-15,33.4-33.4v-93.2L360.3,337.9
					L360.3,337.9z"/>
			</g>
			<g>
				<path class="st7" d="M463.6,467.5L463.6,467.5c-18.5,0-33.6-15-33.6-33.6v-96.6c0-1.3,1.1-2.4,2.4-2.4h68c1.3,0,2.4,1.1,2.4,2.4
					v91C502.8,450,485.2,467.5,463.6,467.5z"/>
				<path class="st3" d="M466.4,470.5c-21.7,0-39.3-17.6-39.3-39.3V335c0-1.6,1.3-3,3-3h72.7c1.6,0,3,1.3,3,3v96.2
					C505.7,452.8,488.1,470.5,466.4,470.5z M433,337.9v93.2c0,18.4,15,33.4,33.4,33.4s33.4-15,33.4-33.4v-93.2L433,337.9L433,337.9z
					"/>
			</g>
			<g>
				<path class="st7" d="M538.2,467.5L538.2,467.5c-19.6,0-35.5-15.9-35.5-35.5v-97.1h72.7v95.3
					C575.5,450.8,558.8,467.5,538.2,467.5z"/>
				<path class="st3" d="M539.1,470.5c-21.7,0-39.3-17.6-39.3-39.3V335c0-1.6,1.3-3,3-3h72.7c1.7,0,3,1.3,3,3v96.2
					C578.5,452.8,560.8,470.5,539.1,470.5z M505.7,337.9v93.2c0,18.4,15,33.4,33.4,33.4s33.4-15,33.4-33.4v-93.2L505.7,337.9
					L505.7,337.9z"/>
			</g>
			<g>
				<polygon class="st7" points="575.5,334.9 66.4,334.9 102.8,301 539.1,301 				"/>
				<path class="st3" d="M575.5,337.9H66.4c-1.2,0-2.3-0.8-2.8-1.9s-0.2-2.4,0.7-3.3l36.4-33.9c0.6-0.5,1.3-0.8,2-0.8h436.4
					c0.8,0,1.5,0.3,2,0.8l36.4,33.9c0.9,0.8,1.2,2.1,0.7,3.3C577.8,337.2,576.7,337.9,575.5,337.9z M73.9,331.9h494l-30-28h-434
					L73.9,331.9z"/>
			</g>
		</g>
	</g>
</g>
<g id="Layer_2">
	<g class="st13">
		<path class="st14" d="M494.9,559.5c49-13,78.6-74.2,93.2-117.5c16.6-49.6,21.4-102.7,20.7-154.8c-0.4-36.4-5.6-77-34.1-99.7
			c-29.4-23.4-72.9-18.6-106.6-35.7C411.8,123.1,397.6,41.2,339,16.9c-22.9-9.5-48.9-8.1-73-2.5c-26.2,6.1-53.1,19.2-63.9,43.5
			c-9.3,21.1-4.4,45.2-1.4,68c2.9,22.8,2.6,48.8-13.9,64.9c-19.9,19.4-52,14.7-79.6,18.4c-33.1,4.5-65.6,25.9-74.2,57.9
			c-5,18.8-1.4,38.7,3.5,57.4C54.3,392.6,89.8,456,138.7,507c7.1,7.4,14.7,14.7,24,18.9c8.8,3.9,18.5,5.1,28.1,6.1
			c87.6,9.5,175,18.8,262.6,28.2c10.3,1,20.8,2.1,31.1,1.1C487.9,561,491.4,560.4,494.9,559.5z"/>
		<path class="st14" d="M24.5,178.4c1.3-9.7,9.8-26.8,28.2-34.2c11.6-4.6,38.2-1.2,45.4,4.7c7.1,5.9,6.3,24.1-15.6,22.7
			C60.4,170.1,46.4,193,46.4,193C31.7,209.1,23.3,188.1,24.5,178.4z"/>
	</g>
	<circle class="st15" cx="538.2" cy="350.8" r="97.9"/>
	<g>
		<line class="st16" x1="538.2" y1="322.1" x2="538.2" y2="628.3"/>
		<ellipse cx="538.2" cy="322.3" rx="3.5" ry="5.4"/>
	</g>
	<path d="M536.1,393.4l1.1,0.9c1.2,0.9,2.8,0.7,3.7-0.5l39.5-51.5c0.9-1.2,0.7-2.8-0.5-3.7l-1.1-0.9c-1.2-0.9-2.8-0.7-3.7,0.5
		l-39.5,51.5C534.8,390.9,535,392.5,536.1,393.4z"/>
	<rect x="65.2" y="205.4" class="st17" width="442.5" height="424.1"/>
	<path class="st17" d="M518.7,221.7H54.2c-4.6,0-8.3-3.7-8.3-8.3v-15.9c0-4.6,3.7-8.3,8.3-8.3h464.5c4.6,0,8.3,3.7,8.3,8.3v15.9
		C527,217.9,523.3,221.7,518.7,221.7z"/>
	<g>
		<path class="st17" d="M133.1,78.9"/>
		<path class="st17" d="M34.8,104c0-15.5,9.6-22.7,23.2-19.6h0c-2-4.4-3.2-9.2-3.2-14.4c0-18.8,15.2-34,34-34c13,0,24.2,7.3,30,17.9
			c2.9-4.9,8.2-8.1,14.2-8.1c9.1,0,16.5,7.4,16.5,16.5c0,0.5,0,1.1-0.1,1.6c7.5-5.9,17-9.4,27.3-9.4c24.5,0,48.2,38,16.9,64.9"/>
		<path class="st17" d="M88.9,104"/>
		<line class="st16" x1="212.3" y1="119.4" x2="160.6" y2="119.4"/>
		<line class="st16" x1="126.3" y1="119.4" x2="74.6" y2="119.4"/>
		<line class="st16" x1="64.7" y1="119.4" x2="48" y2="119.4"/>
		<line class="st16" x1="81.5" y1="104" x2="15.3" y2="104"/>
	</g>
	<g>
		<path class="st17" d="M199.5,484v145.2h-86.9V484c0-25.5,19.5-46.2,43.5-46.2S199.5,458.5,199.5,484z"/>
		<line class="st16" x1="125.9" y1="512.3" x2="125.9" y2="580.6"/>
	</g>
	<g class="st0">
		<path class="st18" d="M141,359.7v87.2c0,19.3-16,34.9-35.7,34.9c-19.7,0-35.7-15.6-35.7-34.9v-87.2H141z"/>
		<path class="st18" d="M212.5,359.7v87.2c0,19.3-16,34.9-35.7,34.9c-19.7,0-35.7-15.6-35.7-34.9v-87.2H212.5z"/>
		<path class="st18" d="M284,359.7v87.2c0,19.3-16,34.9-35.7,34.9c-19.7,0-35.7-15.6-35.7-34.9v-87.2H284z"/>
		<path class="st18" d="M356,359.7v87.2c0,19.3-16,34.9-35.7,34.9c-19.7,0-35.7-15.6-35.7-34.9v-87.2H356z"/>
		<path class="st18" d="M427.5,359.7v87.2c0,19.3-16,34.9-35.7,34.9c-19.7,0-35.7-15.6-35.7-34.9v-87.2H427.5z"/>
		<path class="st18" d="M499,359.7v87.2c0,19.3-16,34.9-35.7,34.9c-19.7,0-35.7-15.6-35.7-34.9v-87.2H499z"/>
		<path class="st18" d="M570.5,359.7v87.2c0,19.3-16,34.9-35.7,34.9S499,466.2,499,446.9v-87.2H570.5z"/>
	</g>
	<g>
		<path class="st17" d="M114.7,381.5c0,19-15.4,34.3-34.3,34.3S46,400.5,46,381.5"/>
		<path class="st17" d="M183.4,381.5c0,19-15.4,34.3-34.3,34.3s-34.3-15.4-34.3-34.3"/>
		<path class="st17" d="M252.1,381.5c0,19-15.4,34.3-34.3,34.3s-34.3-15.4-34.3-34.3"/>
		<path class="st17" d="M320.8,381.5c0,19-15.4,34.3-34.3,34.3s-34.3-15.4-34.3-34.3"/>
		<path class="st17" d="M389.5,381.5c0,19-15.4,34.3-34.3,34.3s-34.3-15.4-34.3-34.3"/>
		<path class="st17" d="M458.2,381.5c0,19-15.4,34.3-34.3,34.3s-34.3-15.4-34.3-34.3"/>
		<path class="st17" d="M526.9,381.5c0,19-15.4,34.3-34.3,34.3s-34.3-15.4-34.3-34.3"/>
	</g>
	<rect x="102.6" y="243.7" class="st19" width="160.2" height="86.4"/>
	<path class="st17" d="M526.8,381.8C526.9,381.8,526.8,381.8,526.8,381.8L46,381.2c-0.1,0,20.4-30.9,20.4-30.9c0,0,0,0,0,0h442.4
		c0,0,0,0,0,0C508.8,350.2,525.9,380.1,526.8,381.8z"/>
	<path class="st16" d="M107.3,240.6h358.3c3.4,0,6.2,2.8,6.2,6.2V327c0,3.4-2.8,6.2-6.2,6.2H107.3c-3.4,0-6.2-2.8-6.2-6.2v-80.2
		C101.1,243.4,103.9,240.6,107.3,240.6z"/>
	<line class="st16" x1="78.6" y1="333.1" x2="494.3" y2="333.1"/>
	<line class="st16" x1="310.2" y1="291.3" x2="470.6" y2="291.3"/>
	<rect x="262.7" y="240.6" class="st16" width="47.4" height="92.6"/>
	<path class="st17" d="M464.1,598.6h-217c-4.1,0-7.4-3.3-7.4-7.4V444.7c0-4.1,3.3-7.4,7.4-7.4h217c4.1,0,7.4,3.3,7.4,7.4v146.5
		C471.5,595.3,468.2,598.6,464.1,598.6z"/>
	<circle class="st15" cx="558" cy="492.5" r="69.9"/>
	<path class="st17" d="M480.4,609.1H230.8c-1.6,0-2.9-1.3-2.9-2.9v-10.3c0-1.6,1.3-2.9,2.9-2.9h249.6c1.6,0,2.9,1.3,2.9,2.9v10.3
		C483.3,607.8,482,609.1,480.4,609.1z"/>
	<g>
		<g>
			<line class="st16" x1="558" y1="472.6" x2="558" y2="628.3"/>
			<circle cx="558" cy="472.8" r="3.5"/>
		</g>
		<path d="M558.4,508.6L558.4,508.6c1.2,0.9,2.8,0.7,3.7-0.5l30.4-39.7c0.9-1.2,0.7-2.8-0.5-3.7l0,0c-1.2-0.9-2.8-0.7-3.7,0.5
			l-30.4,39.7C557,506.1,557.2,507.8,558.4,508.6z"/>
		<path d="M557.8,531.8L557.8,531.8c1-1,1-2.7,0-3.7l-35.4-35.4c-1-1-2.7-1-3.7,0l0,0c-1,1-1,2.7,0,3.7l35.4,35.4
			C555.1,532.9,556.8,532.9,557.8,531.8z"/>
	</g>
	<line class="st16" x1="18.8" y1="629.3" x2="621.2" y2="629.3"/>
</g>
</svg>
