<?xml version="1.0" encoding="utf-8"?>
<!-- Generator: Adobe Illustrator 25.4.1, SVG Export Plug-In . SVG Version: 6.00 Build 0)  -->
<svg version="1.1" xmlns="http://www.w3.org/2000/svg" xmlns:xlink="http://www.w3.org/1999/xlink" x="0px" y="0px"
	 viewBox="0 0 640 640" style="enable-background:new 0 0 640 640;" xml:space="preserve">
<style type="text/css">
	.st0{display:none;}
	.st1{display:inline;}
	.st2{fill:#E8EAF6;}
	.st3{fill:#424242;}
	.st4{fill:#FFC107;}
	.st5{fill:none;}
	.st6{fill:#ECEFF1;}
	.st7{fill:#5E35B1;}
	.st8{fill:#C5CAE9;}
	.st9{clip-path:url(#SVGID_00000069390440938280431750000000946835813224287930_);}
	.st10{clip-path:url(#SVGID_00000160155715533567531210000005080037685672158852_);}
	.st11{clip-path:url(#SVGID_00000161621419614187477580000003651503378168201386_);}
	.st12{clip-path:url(#SVGID_00000173848319201692161190000008188826003866577289_);}
	.st13{clip-path:url(#SVGID_00000156574900070998513170000011151449437666479547_);}
	.st14{clip-path:url(#SVGID_00000018920013643312063530000008917991815114446497_);}
	.st15{clip-path:url(#SVGID_00000093885322698449595760000008596208846068548757_);}
	.st16{clip-path:url(#SVGID_00000002344847709745672950000009926376392992344735_);}
	.st17{opacity:0.47;}
	.st18{fill:#D6D6D6;}
	.st19{fill:#52D400;stroke:#000000;stroke-width:7;stroke-miterlimit:10;}
	.st20{fill:none;stroke:#000000;stroke-width:7;stroke-miterlimit:10;}
	.st21{fill:#FFFFFF;stroke:#000000;stroke-width:7;stroke-miterlimit:10;}
	.st22{fill:#FFD700;stroke:#000000;stroke-width:7;stroke-miterlimit:10;}
	.st23{fill:#FFD700;}
</style>
<g id="Layer_1" class="st0">
	<g class="st1">
		<path class="st2" d="M191.7,181.3c0.1-1.8,0.2-3.7,0.2-5.6c0-38.2-30.9-69.1-69.1-69.1c-30.6,0-56.5,19.8-65.6,47.3
			c-1.2-0.1-2.3-0.2-3.5-0.2c-25.1,0-45.5,20.4-45.5,45.5s20.4,45.5,45.5,45.5h108c21.5,0,38.9-17.4,38.9-38.9
			C200.6,196.6,197.3,188,191.7,181.3z"/>
		<path class="st3" d="M161.7,247.8h-108c-26.8,0-48.5-21.8-48.5-48.5s21.8-48.5,48.5-48.5c0.5,0,1,0,1.5,0
			c10.4-28.3,37.3-47.2,67.7-47.2c39.8,0,72.1,32.3,72.1,72.1c0,1.4-0.1,2.9-0.2,4.6c5.7,7.3,8.8,16.4,8.8,25.6
			C203.6,229.1,184.8,247.8,161.7,247.8z M53.8,156.8c-23.5,0-42.5,19.1-42.5,42.5s19.1,42.5,42.5,42.5h108
			c19.8,0,35.9-16.1,35.9-35.9c0-8.3-2.9-16.4-8.2-22.8c-0.5-0.6-0.7-1.4-0.7-2.1c0.2-2,0.2-3.7,0.2-5.3c0-36.5-29.7-66.1-66.1-66.1
			c-28.5,0-53.8,18.2-62.8,45.3c-0.4,1.3-1.7,2.2-3.1,2C55.9,156.9,54.8,156.8,53.8,156.8z"/>
	</g>
	<g class="st1">
		<path class="st2" d="M602.8,30.5c-0.9,0-1.8,0-2.8,0.1C594,14.5,578.5,3,560.2,3c-18.2,0-33.8,11.5-39.8,27.6
			c-0.9-0.1-1.8-0.1-2.8-0.1c-15.9,0-28.8,12.9-28.8,28.8s12.9,28.8,28.8,28.8h85.1c15.9,0,28.8-12.9,28.8-28.8
			S618.7,30.5,602.8,30.5z"/>
		<path class="st3" d="M602.8,91.1h-85.1c-17.5,0-31.8-14.3-31.8-31.8s14.3-31.8,31.8-31.8c0.3,0,0.5,0,0.8,0
			C525.6,10.9,542.1,0,560.2,0c18.1,0,34.6,10.9,41.8,27.5c0.3,0,0.5,0,0.8,0c17.5,0,31.8,14.3,31.8,31.8S620.4,91.1,602.8,91.1z
			 M517.7,33.4c-14.3,0-25.9,11.6-25.9,25.9s11.6,25.9,25.9,25.9h85.1c14.3,0,25.9-11.6,25.9-25.9s-11.6-25.9-25.9-25.9
			c-0.8,0-1.7,0-2.5,0.1c-1.4,0.1-2.6-0.7-3.1-1.9C591.5,16.3,576.6,6,560.2,6c-16.4,0-31.2,10.3-37,25.7c-0.5,1.3-1.7,2.1-3.1,1.9
			C519.3,33.5,518.5,33.4,517.7,33.4z"/>
	</g>
	<g class="st1">
		<g>
			<path class="st4" d="M115,431.9c0-0.2,0-0.4,0-0.6c0.4-20.9-16.2-38.9-37.1-39.9c-22.6-1.2-41.3,16.8-41.3,39.1
				c0,0.8,0,1.6,0.1,2.4c1,17.1-4.9,33.8-15.1,47.5C12.5,492.6,7.4,508,8.3,524.7c2,34.8,30.7,62.7,65.5,63.7
				c38.3,1.1,69.7-29.6,69.7-67.6c0-15.2-5-29.2-13.5-40.5C119.6,466.4,114.4,449.3,115,431.9z"/>
			<path class="st3" d="M75.9,591.5c-0.7,0-1.4,0-2.2,0C37.4,590.4,7.4,561.2,5.3,525c-0.9-16.6,4-33.1,14-46.4
				c10.3-13.8,15.5-29.9,14.5-45.5c0-0.8-0.1-1.7-0.1-2.5c0-11.7,4.7-22.5,13.1-30.6c8.5-8,19.5-12.1,31.3-11.5
				c22.5,1.2,40.4,20.4,39.9,43v0.6l0,0c-0.6,16.8,4.5,33.3,14.4,46.5c9.2,12.3,14.1,26.9,14.1,42.3c0,19.3-7.6,37.3-21.4,50.7
				C111.8,584.5,94.4,591.5,75.9,591.5z M75.9,394.3c-9.3,0-18.1,3.5-24.9,9.9c-7.3,6.9-11.3,16.2-11.3,26.2c0,0.7,0,1.5,0.1,2.2
				c1,17-4.5,34.6-15.7,49.5c-9.1,12.1-13.6,27.2-12.8,42.5c1.9,33.2,29.4,59.9,62.6,60.9c17.7,0.5,34.4-6,47-18.2
				c12.7-12.3,19.6-28.8,19.6-46.4c0-14.1-4.5-27.5-12.9-38.8c-10.7-14.3-16.3-32.2-15.6-50.3v-0.6c0.4-19.3-15-35.9-34.2-36.9
				C77.2,394.3,76.5,394.3,75.9,394.3z M115,431.9L115,431.9L115,431.9z"/>
		</g>
		<g>
			<line class="st5" x1="75.9" y1="490" x2="75.9" y2="632"/>
			<path class="st3" d="M75.9,635c-1.7,0-3-1.3-3-3V490c0-1.6,1.3-3,3-3s3,1.3,3,3v142C78.9,633.7,77.6,635,75.9,635z"/>
		</g>
		<g>
			<line class="st5" x1="49.8" y1="532.5" x2="75.9" y2="549.7"/>
			<path class="st3" d="M75.9,552.7c-0.6,0-1.1-0.2-1.6-0.5L48.2,535c-1.4-0.9-1.8-2.8-0.8-4.1c0.9-1.4,2.8-1.8,4.1-0.8l26.1,17.2
				c1.4,0.9,1.8,2.8,0.8,4.1C77.8,552.2,76.9,552.7,75.9,552.7z"/>
		</g>
		<g>
			<line class="st5" x1="43.1" y1="632" x2="108.7" y2="632"/>
			<path class="st3" d="M108.7,635H43.1c-1.7,0-3-1.3-3-3s1.3-3,3-3h65.6c1.7,0,3,1.3,3,3S110.4,635,108.7,635z"/>
		</g>
	</g>
	<g class="st1">
		<g>
			<path class="st4" d="M603.1,431.9c0-0.2,0-0.4,0-0.6c0.4-20.9-16.2-38.9-37.1-39.9c-22.6-1.2-41.3,16.8-41.3,39.1
				c0,0.8,0,1.6,0.1,2.4c1,17.1-4.8,33.8-15.1,47.5c-9.2,12.3-14.3,27.7-13.4,44.4c2,34.8,30.7,62.7,65.5,63.7
				c38.3,1.1,69.7-29.6,69.7-67.6c0-15.2-5-29.2-13.5-40.5C607.7,466.4,602.5,449.3,603.1,431.9z"/>
			<path class="st3" d="M564,591.5c-0.7,0-1.4,0-2.2,0c-36.3-1.1-66.4-30.3-68.4-66.5c-0.9-16.6,4-33.1,14-46.4
				c10.3-13.8,15.5-29.9,14.5-45.5c0-0.8-0.1-1.7-0.1-2.5c0-11.7,4.7-22.5,13.1-30.6c8.5-8,19.6-12.1,31.3-11.5
				c22.5,1.2,40.4,20.4,39.9,43v0.6l0,0c-0.6,16.8,4.5,33.3,14.4,46.5c9.2,12.3,14.1,26.9,14.1,42.3c0,19.3-7.6,37.3-21.4,50.7
				C599.9,584.5,582.5,591.5,564,591.5z M564,394.3c-9.3,0-18.1,3.5-24.9,9.9c-7.3,6.9-11.3,16.2-11.3,26.2c0,0.7,0,1.5,0.1,2.2
				c1,17-4.5,34.6-15.7,49.5c-9.1,12.1-13.6,27.2-12.8,42.5c1.9,33.2,29.4,59.9,62.6,60.9c17.7,0.5,34.4-6,47-18.2
				c12.7-12.3,19.6-28.8,19.6-46.4c0-14.1-4.5-27.5-12.9-38.8c-10.7-14.3-16.3-32.2-15.6-50.3v-0.6c0.4-19.4-15-35.9-34.2-36.9
				C565.3,394.3,564.6,394.3,564,394.3z M603.1,431.9L603.1,431.9L603.1,431.9z"/>
		</g>
		<g>
			<line class="st5" x1="564" y1="490" x2="564" y2="632"/>
			<path class="st3" d="M564,635c-1.7,0-3-1.3-3-3V490c0-1.6,1.3-3,3-3s3,1.3,3,3v142C567,633.7,565.6,635,564,635z"/>
		</g>
		<g>
			<line class="st5" x1="537.9" y1="532.5" x2="564" y2="549.7"/>
			<path class="st3" d="M564,552.7c-0.6,0-1.1-0.2-1.6-0.5L536.2,535c-1.4-0.9-1.8-2.8-0.8-4.1c0.9-1.4,2.8-1.8,4.1-0.8l26.1,17.2
				c1.4,0.9,1.8,2.8,0.8,4.1C565.9,552.2,565,552.7,564,552.7z"/>
		</g>
		<g>
			<line class="st5" x1="531.2" y1="632" x2="596.8" y2="632"/>
			<path class="st3" d="M596.8,635h-65.6c-1.7,0-3-1.3-3-3s1.3-3,3-3h65.6c1.7,0,3,1.3,3,3S598.5,635,596.8,635z"/>
		</g>
	</g>
	<g class="st1">
		<g>
			<rect x="98.8" y="191.1" class="st6" width="441" height="441"/>
			<path class="st3" d="M539.8,635h-441c-1.7,0-3-1.3-3-3V191c0-1.6,1.3-3,3-3h441c1.7,0,3,1.3,3,3v441
				C542.7,633.7,541.4,635,539.8,635z M101.8,629h435V194h-435L101.8,629L101.8,629z"/>
		</g>
		<g>
			<rect x="267.3" y="441.5" class="st6" width="108.8" height="190.5"/>
			<path class="st3" d="M376.1,635H267.3c-1.6,0-3-1.3-3-3V441.5c0-1.6,1.3-3,3-3h108.8c1.6,0,3,1.3,3,3V632
				C379,633.7,377.7,635,376.1,635z M270.3,629h102.8V444.5H270.3V629L270.3,629z"/>
		</g>
		<g>
			<path class="st4" d="M362.9,561.6h-11.6c-0.4,0-0.7-0.3-0.7-0.7v-36.1c0-0.4,0.3-0.7,0.7-0.7h11.6c0.4,0,0.7,0.3,0.7,0.7v36.1
				C363.6,561.3,363.3,561.6,362.9,561.6z"/>
			<path class="st3" d="M357.1,564.6c-5.3,0-9.5-4.3-9.5-9.5v-24.5c0-5.3,4.3-9.5,9.5-9.5s9.5,4.3,9.5,9.5v24.5
				C366.6,560.3,362.3,564.6,357.1,564.6z M357.1,527c-2,0-3.5,1.6-3.5,3.5V555c0,2,1.6,3.5,3.5,3.5s3.5-1.6,3.5-3.5v-24.5
				C360.6,528.6,359,527,357.1,527z"/>
		</g>
		<g>
			<line class="st5" x1="75.9" y1="632" x2="564" y2="632"/>
			<path class="st3" d="M564,635H75.9c-1.7,0-3-1.3-3-3s1.3-3,3-3H564c1.7,0,3,1.3,3,3S565.6,635,564,635z"/>
		</g>
		<g>
			<rect x="102.4" y="94.6" class="st7" width="437.1" height="62.1"/>
			<path class="st3" d="M539.4,159.8h-437c-1.7,0-3-1.3-3-3V94.6c0-1.7,1.3-3,3-3h437.1c1.7,0,3,1.3,3,3v62.1
				C542.4,158.4,541.1,159.8,539.4,159.8z M105.3,153.8h431.1V97.6H105.3V153.8z"/>
		</g>
		<g>
			<g>
				<polygon class="st8" points="539.8,409.5 467.1,409.5 394.4,409.5 394.4,281.8 539.8,281.8 				"/>
				<path class="st3" d="M539.8,412.5H394.4c-1.6,0-3-1.3-3-3V281.8c0-1.6,1.3-3,3-3h145.4c1.7,0,3,1.3,3,3v127.7
					C542.7,411.1,541.4,412.5,539.8,412.5z M397.4,406.5h139.4V284.8H397.4V406.5z"/>
			</g>
			<g>
				<g>
					<g>
						<g>
							<defs>
								<polygon id="SVGID_1_" points="539.8,409.3 467,409.3 394.3,409.3 394.3,282.7 539.8,282.7 								"/>
							</defs>
							<clipPath id="SVGID_00000096053144711225921040000010596963830723904958_">
								<use xlink:href="#SVGID_1_"  style="overflow:visible;"/>
							</clipPath>
							<g style="clip-path:url(#SVGID_00000096053144711225921040000010596963830723904958_);">
								<polygon class="st2" points="392.9,416.9 373.1,397.3 496.1,275.3 515.9,295 								"/>
							</g>
						</g>
					</g>
				</g>
				<g>
					<g>
						<g>
							<defs>
								<polygon id="SVGID_00000005978219870017092150000005652309541480179642_" points="539.8,409.3 467,409.3 394.3,409.3 
									394.3,282.7 539.8,282.7 								"/>
							</defs>
							<clipPath id="SVGID_00000093857641016593654710000013168460407028660124_">
								<use xlink:href="#SVGID_00000005978219870017092150000005652309541480179642_"  style="overflow:visible;"/>
							</clipPath>
							<g style="clip-path:url(#SVGID_00000093857641016593654710000013168460407028660124_);">
								<polygon class="st2" points="458.6,455.6 423.3,420.6 540.6,304.3 575.9,339.3 								"/>
							</g>
						</g>
					</g>
				</g>
			</g>
			<g>
				<path class="st3" d="M539.8,412.5H394.4c-1.6,0-3-1.3-3-3V281.8c0-1.6,1.3-3,3-3h145.4c1.7,0,3,1.3,3,3v127.7
					C542.7,411.1,541.4,412.5,539.8,412.5z M397.4,406.5h139.4V284.8H397.4V406.5z"/>
			</g>
			<g>
				<line class="st5" x1="467.1" y1="281.8" x2="467.1" y2="409.5"/>
				<path class="st3" d="M467.1,412.5c-1.6,0-3-1.3-3-3V281.8c0-1.6,1.3-3,3-3c1.6,0,3,1.3,3,3v127.7
					C470,411.1,468.7,412.5,467.1,412.5z"/>
			</g>
		</g>
		<g>
			<g>
				<polygon class="st8" points="539.8,569.2 467.1,569.2 394.4,569.2 394.4,441.5 539.8,441.5 				"/>
				<path class="st3" d="M539.8,572.2H394.4c-1.6,0-3-1.3-3-3V441.5c0-1.6,1.3-3,3-3h145.4c1.7,0,3,1.3,3,3v127.6
					C542.7,570.8,541.4,572.2,539.8,572.2z M397.4,566.2h139.4V444.5H397.4V566.2z"/>
			</g>
			<g>
				<g>
					<g>
						<g>
							<defs>
								<polygon id="SVGID_00000155118101346607914680000015768410390353934753_" points="539.8,569 467,569 394.3,569 394.3,442.4 
									539.8,442.4 								"/>
							</defs>
							<clipPath id="SVGID_00000064324400958579181260000011772292052857637548_">
								<use xlink:href="#SVGID_00000155118101346607914680000015768410390353934753_"  style="overflow:visible;"/>
							</clipPath>
							<g style="clip-path:url(#SVGID_00000064324400958579181260000011772292052857637548_);">
								<polygon class="st2" points="392.9,576.6 373.1,557 513.8,417.2 533.7,436.9 								"/>
							</g>
						</g>
					</g>
				</g>
				<g>
					<g>
						<g>
							<defs>
								<polygon id="SVGID_00000123437066334929490230000016962468081192600719_" points="539.8,569 467,569 394.3,569 394.3,442.4 
									539.8,442.4 								"/>
							</defs>
							<clipPath id="SVGID_00000096758514315785608080000002401216858899454652_">
								<use xlink:href="#SVGID_00000123437066334929490230000016962468081192600719_"  style="overflow:visible;"/>
							</clipPath>
							<g style="clip-path:url(#SVGID_00000096758514315785608080000002401216858899454652_);">
								<polygon class="st2" points="458.6,615.3 423.3,580.3 540.6,464 575.9,499 								"/>
							</g>
						</g>
					</g>
				</g>
			</g>
			<g>
				<path class="st3" d="M539.8,572.2H394.4c-1.6,0-3-1.3-3-3V441.5c0-1.6,1.3-3,3-3h145.4c1.7,0,3,1.3,3,3v127.6
					C542.7,570.8,541.4,572.2,539.8,572.2z M397.4,566.2h139.4V444.5H397.4V566.2z"/>
			</g>
			<g>
				<line class="st5" x1="467.1" y1="441.5" x2="467.1" y2="569.2"/>
				<path class="st3" d="M467.1,572.2c-1.6,0-3-1.3-3-3V441.5c0-1.6,1.3-3,3-3c1.6,0,3,1.3,3,3v127.6
					C470,570.8,468.7,572.2,467.1,572.2z"/>
			</g>
		</g>
		<g>
			<g>
				<polygon class="st8" points="244.2,409.5 171.5,409.5 98.8,409.5 98.8,281.8 244.2,281.8 				"/>
				<path class="st3" d="M244.2,412.5H98.8c-1.7,0-3-1.3-3-3V281.8c0-1.6,1.3-3,3-3h145.4c1.6,0,3,1.3,3,3v127.7
					C247.2,411.1,245.8,412.5,244.2,412.5z M101.8,406.5h139.4V284.8H101.8V406.5z"/>
			</g>
			<g>
				<g>
					<g>
						<g>
							<defs>
								<polygon id="SVGID_00000143595822473030192200000018270339300692758688_" points="244.2,409.3 171.5,409.3 98.7,409.3 
									98.7,282.7 244.2,282.7 								"/>
							</defs>
							<clipPath id="SVGID_00000101070017776304554340000003240313936046861966_">
								<use xlink:href="#SVGID_00000143595822473030192200000018270339300692758688_"  style="overflow:visible;"/>
							</clipPath>
							<g style="clip-path:url(#SVGID_00000101070017776304554340000003240313936046861966_);">
								<polygon class="st2" points="97.3,416.9 77.5,397.3 200.5,275.3 220.3,295 								"/>
							</g>
						</g>
					</g>
				</g>
				<g>
					<g>
						<g>
							<defs>
								<polygon id="SVGID_00000142892005918662359900000011540650083341008278_" points="244.2,409.3 171.5,409.3 98.7,409.3 
									98.7,282.7 244.2,282.7 								"/>
							</defs>
							<clipPath id="SVGID_00000101070829349786998270000017114836439586166418_">
								<use xlink:href="#SVGID_00000142892005918662359900000011540650083341008278_"  style="overflow:visible;"/>
							</clipPath>
							<g style="clip-path:url(#SVGID_00000101070829349786998270000017114836439586166418_);">
								<polygon class="st2" points="163,455.6 127.7,420.6 245.1,304.3 280.4,339.3 								"/>
							</g>
						</g>
					</g>
				</g>
			</g>
			<g>
				<path class="st3" d="M244.2,412.5H98.8c-1.7,0-3-1.3-3-3V281.8c0-1.6,1.3-3,3-3h145.4c1.6,0,3,1.3,3,3v127.7
					C247.2,411.1,245.8,412.5,244.2,412.5z M101.8,406.5h139.4V284.8H101.8V406.5z"/>
			</g>
			<g>
				<line class="st5" x1="171.5" y1="281.8" x2="171.5" y2="409.5"/>
				<path class="st3" d="M171.5,412.5c-1.6,0-3-1.3-3-3V281.8c0-1.6,1.3-3,3-3c1.6,0,3,1.3,3,3v127.7
					C174.5,411.1,173.1,412.5,171.5,412.5z"/>
			</g>
		</g>
		<g>
			<g>
				<polygon class="st8" points="244.2,569.2 171.5,569.2 98.8,569.2 98.8,441.5 244.2,441.5 				"/>
				<path class="st3" d="M244.2,572.2H98.8c-1.7,0-3-1.3-3-3V441.5c0-1.6,1.3-3,3-3h145.4c1.6,0,3,1.3,3,3v127.6
					C247.2,570.8,245.8,572.2,244.2,572.2z M101.8,566.2h139.4V444.5H101.8V566.2z"/>
			</g>
			<g>
				<g>
					<g>
						<g>
							<defs>
								<polygon id="SVGID_00000178890064887482603850000003591882238225551549_" points="244.2,569 171.5,569 98.7,569 98.7,442.4 
									244.2,442.4 								"/>
							</defs>
							<clipPath id="SVGID_00000062904527646102464990000007736760755231837591_">
								<use xlink:href="#SVGID_00000178890064887482603850000003591882238225551549_"  style="overflow:visible;"/>
							</clipPath>
							<g style="clip-path:url(#SVGID_00000062904527646102464990000007736760755231837591_);">
								<polygon class="st2" points="97.3,576.6 77.5,557 221.9,413.7 241.7,433.3 								"/>
							</g>
						</g>
					</g>
				</g>
				<g>
					<g>
						<g>
							<defs>
								<polygon id="SVGID_00000060004633926704631730000016902152277879034289_" points="244.2,569 171.5,569 98.7,569 98.7,442.4 
									244.2,442.4 								"/>
							</defs>
							<clipPath id="SVGID_00000058550689528769168690000012696620981622406076_">
								<use xlink:href="#SVGID_00000060004633926704631730000016902152277879034289_"  style="overflow:visible;"/>
							</clipPath>
							<g style="clip-path:url(#SVGID_00000058550689528769168690000012696620981622406076_);">
								<polygon class="st2" points="163,615.3 127.7,580.3 245.1,464 280.4,499 								"/>
							</g>
						</g>
					</g>
				</g>
			</g>
			<g>
				<path class="st3" d="M244.2,572.2H98.8c-1.7,0-3-1.3-3-3V441.5c0-1.6,1.3-3,3-3h145.4c1.6,0,3,1.3,3,3v127.6
					C247.2,570.8,245.8,572.2,244.2,572.2z M101.8,566.2h139.4V444.5H101.8V566.2z"/>
			</g>
			<g>
				<line class="st5" x1="171.5" y1="441.5" x2="171.5" y2="569.2"/>
				<path class="st3" d="M171.5,572.2c-1.6,0-3-1.3-3-3V441.5c0-1.6,1.3-3,3-3c1.6,0,3,1.3,3,3v127.6
					C174.5,570.8,173.1,572.2,171.5,572.2z"/>
			</g>
		</g>
		<g>
			<g>
				<path class="st7" d="M103.5,323.5h-1.8c-19.6,0-35.5-15.9-35.5-35.5v-97.3H139v97.2C139.1,307.5,123.1,323.5,103.5,323.5z"/>
				<path class="st3" d="M102.4,326.5c-21.7,0-39.4-17.7-39.4-39.4v-96.4c0-1.6,1.3-3,3-3h72.8c1.6,0,3,1.3,3,3v96.4
					C141.8,308.8,124.1,326.5,102.4,326.5z M68.9,193.7v93.4c0,18.4,15,33.4,33.4,33.4s33.4-15,33.4-33.4v-93.4L68.9,193.7
					L68.9,193.7z"/>
			</g>
			<g>
				<path class="st7" d="M199.5,315.4l-24.8,8.1c-19.8,0-35.9-16-35.9-35.9v-96.9h72.8v101.2C211.6,294.1,201.7,315.4,199.5,315.4z"
					/>
				<path class="st3" d="M175.2,326.5c-21.7,0-39.4-17.7-39.4-39.4v-96.4c0-1.6,1.3-3,3-3h72.8c1.6,0,3,1.3,3,3v96.4
					C214.6,308.8,196.9,326.5,175.2,326.5z M141.8,193.7v93.4c0,18.4,15,33.4,33.4,33.4s33.4-15,33.4-33.4v-93.4L141.8,193.7
					L141.8,193.7z"/>
			</g>
			<g>
				<path class="st7" d="M272.4,315.4l-24.6,8.1c-20,0-36.2-16.2-36.2-36.2v-96.6h72.8v100C284.5,292.9,274.6,315.4,272.4,315.4z"/>
				<path class="st3" d="M248.1,326.5c-21.7,0-39.4-17.7-39.4-39.4v-96.4c0-1.6,1.3-3,3-3h72.8c1.6,0,3,1.3,3,3v96.4
					C287.5,308.8,269.8,326.5,248.1,326.5z M214.6,193.7v93.4c0,18.4,15,33.4,33.4,33.4s33.4-15,33.4-33.4v-93.4L214.6,193.7
					L214.6,193.7z"/>
			</g>
			<g>
				<path class="st7" d="M345.4,315.6l-23.5,7.9c-20.6,0-37.4-16.7-37.4-37.4v-95.4h72.8v101.8C357.3,294.7,347.6,315.6,345.4,315.6
					z"/>
				<path class="st3" d="M320.9,326.5c-21.7,0-39.4-17.7-39.4-39.4v-96.4c0-1.6,1.3-3,3-3h72.8c1.6,0,3,1.3,3,3v96.4
					C360.3,308.8,342.6,326.5,320.9,326.5z M287.5,193.7v93.4c0,18.4,15,33.4,33.4,33.4s33.4-15,33.4-33.4v-93.4L287.5,193.7
					L287.5,193.7z"/>
			</g>
			<g>
				<path class="st7" d="M418.5,315.9l-24.8,7.6c-20.1,0-36.4-16.3-36.4-36.4v-96.4h72.8V292C430.1,294.3,420.7,315.9,418.5,315.9z"
					/>
				<path class="st3" d="M393.7,326.5c-21.7,0-39.4-17.7-39.4-39.4v-96.4c0-1.6,1.3-3,3-3h72.8c1.6,0,3,1.3,3,3v96.4
					C433.1,308.8,415.5,326.5,393.7,326.5z M360.3,193.7v93.4c0,18.4,15,33.4,33.4,33.4s33.4-15,33.4-33.4v-93.4L360.3,193.7
					L360.3,193.7z"/>
			</g>
			<g>
				<path class="st7" d="M466.9,323.5H466c-19.8,0-35.9-16.1-35.9-35.9v-96.9H503v96.6C503,307.3,486.8,323.5,466.9,323.5z"/>
				<path class="st3" d="M466.6,326.5c-21.7,0-39.4-17.7-39.4-39.4v-96.4c0-1.6,1.3-3,3-3H503c1.6,0,3,1.3,3,3v96.4
					C506,308.8,488.3,326.5,466.6,326.5z M433.1,193.7v93.4c0,18.4,15,33.4,33.4,33.4s33.4-15,33.4-33.4v-93.4L433.1,193.7
					L433.1,193.7z"/>
			</g>
			<g>
				<path class="st7" d="M563.5,315.2l-26.5,8.3c-18.8,0-34-15.2-34-34v-98.8h72.8v105.1C575.8,298,565.7,315.2,563.5,315.2z"/>
				<path class="st3" d="M539.4,326.5c-21.7,0-39.4-17.7-39.4-39.4v-96.4c0-1.6,1.3-3,3-3h72.8c1.7,0,3,1.3,3,3v96.4
					C578.8,308.8,561.2,326.5,539.4,326.5z M506,193.7v93.4c0,18.4,15,33.4,33.4,33.4s33.4-15,33.4-33.4v-93.4L506,193.7L506,193.7z
					"/>
			</g>
			<g>
				<polygon class="st7" points="575.8,190.7 65.9,190.7 102.4,156.8 539.4,156.8 				"/>
				<path class="st3" d="M575.8,193.7H65.9c-1.2,0-2.3-0.8-2.8-1.9c-0.5-1.1-0.2-2.4,0.7-3.3l36.4-34c0.6-0.5,1.3-0.8,2-0.8h437.1
					c0.8,0,1.5,0.3,2,0.8l36.4,34c0.9,0.8,1.2,2.1,0.7,3.3C578.2,193,577.1,193.7,575.8,193.7z M73.5,187.8h494.8l-30-28H103.5
					L73.5,187.8z"/>
			</g>
		</g>
	</g>
</g>
<g id="Layer_2">
	<g class="st17">
		<path class="st18" d="M513.5,596.8c53-14.1,85-80.6,100.7-127.6c17.9-53.9,23.1-111.5,22.4-168.1c-0.4-39.5-6.1-83.6-36.9-108.2
			c-31.8-25.5-78.8-20.2-115.2-38.8C423.7,122.8,408.3,33.8,345,7.5c-24.8-10.3-52.9-8.8-78.9-2.7c-28.3,6.6-57.4,20.8-69.1,47.3
			c-10.1,22.9-4.8,49.1-1.5,73.8c3.1,24.7,2.8,53-15,70.5c-21.5,21.1-56.2,15.9-86,20c-35.8,4.9-70.9,28.2-80.2,62.9
			c-5.4,20.4-1.5,42,3.8,62.3c19.2,73.8,57.6,142.8,110.5,198.1c7.7,8.1,15.9,15.9,25.9,20.6c9.5,4.3,20,5.5,30.4,6.6
			c94.7,10.3,189.2,20.4,283.8,30.6c11.1,1.1,22.5,2.3,33.6,1.2C505.9,598.4,509.7,597.8,513.5,596.8z"/>
		<path class="st18" d="M5,182.8c1.4-10.5,10.6-29.1,30.5-37.1c12.5-5,41.3-1.3,49.1,5.1c7.7,6.4,6.8,26.2-16.9,24.6
			c-23.9-1.6-39,23.3-39,23.3C12.8,216.3,3.7,193.4,5,182.8z"/>
	</g>
	<g>
		<path class="st19" d="M108.7,560L108.7,560c-34.1,0-61.7-27.6-61.7-61.7V388.9c0-34.1,27.6-61.7,61.7-61.7h0
			c34.1,0,61.7,27.6,61.7,61.7v109.3C170.4,532.3,142.7,560,108.7,560z"/>
		<g>
			<g>
				<line class="st20" x1="108.7" y1="433.1" x2="108.7" y2="630.4"/>
				<circle cx="108.7" cy="433.2" r="3.5"/>
			</g>
			<path d="M107.7,492.5L107.7,492.5c1.7,0.7,3.7,0,4.4-1.7l25.2-58.1c0.7-1.7,0-3.7-1.7-4.4l0,0c-1.7-0.7-3.7,0-4.4,1.7L106,488.1
				C105.2,489.8,106,491.8,107.7,492.5z"/>
			<path d="M109.4,534.2L109.4,534.2c1.6-0.9,2.2-3,1.2-4.6L79,474.8c-0.9-1.6-3-2.2-4.6-1.2h0c-1.6,0.9-2.2,3-1.2,4.6l31.7,54.9
				C105.8,534.6,107.8,535.1,109.4,534.2z"/>
		</g>
	</g>
	<rect x="150.9" y="111.5" class="st21" width="442.5" height="518"/>
	<g>
		<g>
			<rect x="143.9" y="61.9" class="st21" width="57.3" height="39.2"/>
			<rect x="200.4" y="61.9" class="st21" width="57.3" height="39.2"/>
			<rect x="257" y="61.9" class="st21" width="57.3" height="39.2"/>
			<rect x="313.5" y="61.9" class="st21" width="57.3" height="39.2"/>
			<rect x="370" y="61.9" class="st21" width="57.3" height="39.2"/>
			<rect x="426.5" y="61.9" class="st21" width="57.3" height="39.2"/>
			<rect x="483.1" y="61.9" class="st21" width="57.3" height="39.2"/>
			<rect x="539.6" y="61.9" class="st21" width="57.3" height="39.2"/>
		</g>
		<path class="st21" d="M604.4,113.6H139.9c-4.6,0-8.3-3.7-8.3-8.3V102c0-4.6,3.7-8.3,8.3-8.3h464.5c4.6,0,8.3,3.7,8.3,8.3v3.2
			C612.7,109.8,609,113.6,604.4,113.6z"/>
		<path class="st21" d="M604.4,71.8H139.9c-4.6,0-8.3-3.7-8.3-8.3v-3.2c0-4.6,3.7-8.3,8.3-8.3h464.5c4.6,0,8.3,3.7,8.3,8.3v3.2
			C612.7,68.1,609,71.8,604.4,71.8z"/>
	</g>
	<g>
		<path class="st21" d="M319.7,496.2l1.1,132.8l-132.3,0.5V496.2c0-38.6,29.4-69.8,65.6-69.8C290.3,426.4,319.7,457.6,319.7,496.2z"
			/>
		<line class="st20" x1="208.4" y1="510.7" x2="208.4" y2="593.6"/>
	</g>
	<g>
		<g>
			<path class="st21" d="M200.4,381.5c0,19-15.4,34.3-34.3,34.3s-34.3-15.4-34.3-34.3"/>
			<path class="st21" d="M269,381.5c0,19-15.4,34.3-34.3,34.3s-34.3-15.4-34.3-34.3"/>
			<path class="st21" d="M337.7,381.5c0,19-15.4,34.3-34.3,34.3S269,400.5,269,381.5"/>
			<path class="st21" d="M406.4,381.5c0,19-15.4,34.3-34.3,34.3s-34.3-15.4-34.3-34.3"/>
			<path class="st21" d="M475.1,381.5c0,19-15.4,34.3-34.3,34.3s-34.3-15.4-34.3-34.3"/>
			<path class="st21" d="M543.8,381.5c0,19-15.4,34.3-34.3,34.3s-34.3-15.4-34.3-34.3"/>
			<path class="st21" d="M612.5,381.5c0,19-15.4,34.3-34.3,34.3c-19,0-34.3-15.4-34.3-34.3"/>
		</g>
		<path class="st21" d="M612.5,381.8C612.5,381.8,612.5,381.9,612.5,381.8l-480.8-0.6c-0.1,0,20.4-30.9,20.4-30.9c0,0,0,0,0,0h442.4
			c0,0,0,0,0,0C594.5,350.3,611.5,380.1,612.5,381.8z"/>
	</g>
	<path class="st22" d="M555.6,605.4H354.8v-80.6c0-44.5,36.1-80.6,80.6-80.6h39.5c44.5,0,80.6,36.1,80.6,80.6V605.4z"/>
	<path class="st21" d="M561.9,609.8H348.5c-1.6,0-2.9-1.3-2.9-2.9v-10.3c0-1.6,1.3-2.9,2.9-2.9h213.4c1.6,0,2.9,1.3,2.9,2.9v10.3
		C564.8,608.5,563.5,609.8,561.9,609.8z"/>
	<g>
		<rect x="391.1" y="127.4" class="st23" width="160.2" height="90.7"/>
		<g>
			<path class="st20" d="M188.1,127.4h358.3c3.4,0,6.2,2.8,6.2,6.2v80.2c0,3.4-2.8,6.2-6.2,6.2H188.1c-3.4,0-6.2-2.8-6.2-6.2v-80.2
				C181.9,130.2,184.7,127.4,188.1,127.4z"/>
			<line class="st20" x1="159.5" y1="220" x2="575.1" y2="220"/>
			<line class="st20" x1="391" y1="178.1" x2="551.4" y2="178.1"/>
			<rect x="343.6" y="127.4" class="st20" width="47.4" height="92.6"/>
		</g>
	</g>
	<g>
		<rect x="181.9" y="236.4" class="st23" width="160.2" height="90.7"/>
		<g>
			<path class="st20" d="M546.5,236.4H188.1c-3.4,0-6.2,2.8-6.2,6.2v80.2c0,3.4,2.8,6.2,6.2,6.2h358.3c3.4,0,6.2-2.8,6.2-6.2v-80.2
				C552.7,239.2,549.9,236.4,546.5,236.4z"/>
			<line class="st20" x1="575.1" y1="329" x2="159.5" y2="329"/>
			<line class="st20" x1="343.6" y1="287.1" x2="183.2" y2="287.1"/>
			
				<rect x="343.6" y="236.4" transform="matrix(-1 -4.487489e-11 4.487489e-11 -1 734.6009 565.4)" class="st20" width="47.4" height="92.6"/>
		</g>
	</g>
	<line class="st20" x1="11.6" y1="629.5" x2="629.5" y2="629.5"/>
</g>
</svg>
