<?xml version="1.0" encoding="utf-8"?>
<!-- Generator: Adobe Illustrator 25.4.1, SVG Export Plug-In . SVG Version: 6.00 Build 0)  -->
<svg version="1.1" xmlns="http://www.w3.org/2000/svg" xmlns:xlink="http://www.w3.org/1999/xlink" x="0px" y="0px"
	 viewBox="0 0 640 640" style="enable-background:new 0 0 640 640;" xml:space="preserve">
<style type="text/css">
	.st0{display:none;}
	.st1{display:inline;}
	.st2{fill:#E8EAF6;}
	.st3{fill:#424242;}
	.st4{fill:#FFC107;}
	.st5{fill:none;}
	.st6{fill:#ECEFF1;}
	.st7{fill:#C5CAE9;}
	.st8{clip-path:url(#SVGID_00000004516742276685085670000006241028755436885150_);}
	.st9{clip-path:url(#SVGID_00000073707357483905752110000000422079990614456204_);}
	.st10{fill:#5E35B1;}
	.st11{opacity:0.47;}
	.st12{fill:#D6D6D6;}
	.st13{fill:#FFFFFF;stroke:#000000;stroke-width:7;stroke-miterlimit:10;}
	.st14{fill:#FFD700;stroke:#000000;stroke-width:7;stroke-miterlimit:10;}
	.st15{fill:none;stroke:#000000;stroke-width:7;stroke-miterlimit:10;}
	.st16{display:none;fill:#FFFFFF;stroke:#000000;stroke-width:7;stroke-miterlimit:10;}
	.st17{fill:#52D400;stroke:#000000;stroke-width:7;stroke-miterlimit:10;}
	.st18{display:inline;fill:#FFFFFF;stroke:#000000;stroke-width:7;stroke-miterlimit:10;}
</style>
<g id="Layer_1" class="st0">
	<g class="st1">
		<path class="st2" d="M629.3,176.2c0.1-1.7,0.2-3.3,0.2-5c0-34.6-28-62.6-62.6-62.6c-27.7,0-51.2,18-59.4,42.9
			c-1.1-0.1-2.1-0.2-3.2-0.2c-22.8,0-41.3,18.5-41.3,41.3s18.5,41.3,41.3,41.3h97.8c19.5,0,35.2-15.8,35.2-35.2
			C637.3,190.1,634.3,182.3,629.3,176.2z"/>
		<path class="st3" d="M602.1,236.5h-97.8c-24.2,0-44-19.7-44-44s19.7-44,44-44c0.5,0,0.9,0,1.3,0c9.4-25.7,33.8-42.8,61.3-42.8
			c36,0,65.3,29.3,65.3,65.3c0,1.3,0,2.7-0.2,4.2c5.1,6.6,8,14.8,8,23.2C640,219.5,623,236.5,602.1,236.5z M504.3,154
			c-21.3,0-38.5,17.3-38.5,38.6s17.3,38.6,38.5,38.6h97.8c17.9,0,32.5-14.6,32.5-32.5c0-7.5-2.6-14.9-7.4-20.6
			c-0.5-0.5-0.7-1.2-0.6-1.9c0.1-1.8,0.2-3.4,0.2-4.8c0-33-26.9-59.9-59.9-59.9c-25.9,0-48.7,16.5-56.9,41.1c-0.4,1.2-1.5,2-2.8,1.8
			C506.2,154.1,505.2,154,504.3,154z"/>
	</g>
	<g class="st1">
		<path class="st2" d="M139,41.7c-1.1,0-2.2,0.1-3.3,0.2C128.5,22.7,110.1,9,88.4,9S48.3,22.7,41.1,41.8c-1.1-0.1-2.2-0.2-3.3-0.2
			C18.9,41.7,3.5,57,3.5,75.9s15.3,34.3,34.3,34.3H139c18.9,0,34.3-15.3,34.3-34.3S157.9,41.7,139,41.7z"/>
		<path class="st3" d="M139,113.8H37.8C17,113.8,0,96.8,0,75.9s17-37.8,37.8-37.8c0.3,0,0.6,0,1,0C47.3,18.5,66.9,5.5,88.4,5.5
			s41.1,13,49.6,32.7c0.3,0,0.6,0,0.9,0c20.9,0,37.8,17,37.8,37.8C176.8,96.8,159.9,113.8,139,113.8z M37.8,45.2
			C20.9,45.2,7.1,59,7.1,75.9s13.8,30.7,30.7,30.7H139c16.9,0,30.7-13.8,30.7-30.7S155.9,45.2,139,45.2c-1,0-2,0.1-2.9,0.2
			c-1.6,0.2-3.1-0.8-3.6-2.3c-6.9-18.2-24.6-30.5-44-30.5s-37.1,12.3-44,30.5c-0.6,1.5-2.1,2.4-3.7,2.3
			C39.8,45.3,38.8,45.2,37.8,45.2z"/>
	</g>
	<g class="st1">
		<g>
			<path class="st4" d="M609,434.9c0-0.2,0-0.4,0-0.6c0.4-20.5-15.9-38.2-36.4-39.3c-22.2-1.1-40.5,16.5-40.5,38.4
				c0,0.8,0,1.6,0.1,2.3c1,16.8-4.8,33.3-14.8,46.7c-9,12-14,27.3-13.1,43.7c1.9,34.2,30.2,61.6,64.4,62.6
				c37.7,1.1,68.5-29.1,68.5-66.5c0-15-4.9-28.7-13.3-39.8C613.5,468.8,608.4,452,609,434.9z"/>
			<path class="st3" d="M570.6,591.7c-0.7,0-1.4,0-2.1,0c-35.7-1.1-65.2-29.8-67.2-65.4c-0.9-16.4,4-32.5,13.7-45.6
				c10.1-13.5,15.2-29.4,14.3-44.8c0-0.8-0.1-1.7-0.1-2.5c0-11.5,4.6-22.1,12.9-30c8.3-7.9,19.2-11.9,30.7-11.3
				c22.1,1.1,39.7,20.1,39.2,42.2v0.6l0,0c-0.6,16.5,4.4,32.7,14.2,45.7c9.1,12.1,13.8,26.5,13.8,41.6c0,18.9-7.5,36.6-21.1,49.8
				C605.8,584.8,588.8,591.7,570.6,591.7z M570.5,397.9c-9.2,0-17.8,3.4-24.5,9.8c-7.1,6.8-11.1,15.9-11.1,25.8c0,0.7,0,1.4,0.1,2.2
				c1,16.8-4.5,34-15.4,48.6c-8.9,11.9-13.4,26.8-12.5,41.7c1.8,32.6,28.9,58.9,61.5,59.9c17.4,0.5,33.8-5.9,46.2-17.9
				c12.4-12.1,19.3-28.3,19.3-45.6c0-13.9-4.4-27-12.7-38.1c-10.5-14.1-16-31.6-15.4-49.5v-0.5c0.4-19-14.7-35.3-33.7-36.3
				C571.8,397.9,571.2,397.9,570.5,397.9z M609,434.9L609,434.9L609,434.9z"/>
		</g>
		<g>
			<line class="st5" x1="570.6" y1="492" x2="570.6" y2="631.6"/>
			<path class="st3" d="M570.6,634.5c-1.6,0-2.9-1.3-2.9-2.9V492c0-1.6,1.3-2.9,2.9-2.9s2.9,1.3,2.9,2.9v139.6
				C573.5,633.2,572.2,634.5,570.6,634.5z"/>
		</g>
		<g>
			<line class="st5" x1="544.9" y1="533.7" x2="570.6" y2="550.7"/>
			<path class="st3" d="M570.6,553.6c-0.5,0-1.1-0.2-1.6-0.5l-25.7-16.9c-1.3-0.9-1.7-2.7-0.8-4.1c0.9-1.3,2.7-1.7,4.1-0.8
				l25.7,16.9c1.3,0.9,1.7,2.7,0.8,4.1C572.5,553.1,571.5,553.6,570.6,553.6z"/>
		</g>
		<g>
			<line class="st5" x1="538.3" y1="631.6" x2="602.8" y2="631.6"/>
			<path class="st3" d="M602.8,634.5h-64.5c-1.6,0-2.9-1.3-2.9-2.9s1.3-2.9,2.9-2.9h64.5c1.6,0,2.9,1.3,2.9,2.9
				C605.8,633.2,604.4,634.5,602.8,634.5z"/>
		</g>
	</g>
	<g class="st1">
		<g>
			<path class="st4" d="M107.9,434.9c0-0.2,0-0.4,0-0.6c0.4-20.5-15.9-38.2-36.4-39.3C49.3,393.9,31,411.5,31,433.4
				c0,0.8,0,1.6,0.1,2.3c1,16.8-4.8,33.3-14.8,46.7c-9,12-14.1,27.3-13.1,43.7c1.9,34.2,30.2,61.6,64.4,62.6
				c37.7,1.1,68.5-29.1,68.5-66.5c0-15-4.9-28.7-13.3-39.8C112.4,468.8,107.3,452,107.9,434.9z"/>
			<path class="st3" d="M69.4,591.7c-0.7,0-1.4,0-2.1,0c-35.7-1.1-65.2-29.8-67.2-65.4c-0.9-16.4,3.9-32.5,13.7-45.6
				C23.9,467.2,29,451.3,28.1,436c0-0.8-0.1-1.7-0.1-2.5c0-11.5,4.6-22.1,12.9-30s19.2-11.9,30.7-11.3c22.1,1.1,39.7,20.1,39.2,42.2
				v0.6l0,0c-0.6,16.5,4.4,32.7,14.2,45.7c9.1,12.1,13.8,26.5,13.8,41.6c0,18.9-7.5,36.6-21.1,49.8
				C104.7,584.8,87.6,591.7,69.4,591.7z M69.4,397.9c-9.2,0-17.8,3.4-24.5,9.8c-7.1,6.8-11.1,15.9-11.1,25.8c0,0.7,0,1.4,0.1,2.2
				c1,16.7-4.5,34-15.4,48.6C9.6,496.2,5.1,511,6,526c1.8,32.6,28.9,58.9,61.5,59.9c17.4,0.5,33.8-5.8,46.2-17.9
				s19.3-28.3,19.3-45.6c0-13.9-4.4-27-12.7-38.1c-10.6-14.1-16-31.6-15.4-49.5v-0.6c0.4-19-14.7-35.3-33.7-36.3
				C70.7,397.9,70.1,397.9,69.4,397.9z M107.9,434.9L107.9,434.9L107.9,434.9z"/>
		</g>
		<g>
			<line class="st5" x1="69.4" y1="492" x2="69.4" y2="631.6"/>
			<path class="st3" d="M69.4,634.5c-1.6,0-2.9-1.3-2.9-2.9V492c0-1.6,1.3-2.9,2.9-2.9s2.9,1.3,2.9,2.9v139.6
				C72.4,633.2,71.1,634.5,69.4,634.5z"/>
		</g>
		<g>
			<line class="st5" x1="43.8" y1="533.7" x2="69.4" y2="550.7"/>
			<path class="st3" d="M69.4,553.6c-0.6,0-1.1-0.2-1.6-0.5l-25.7-16.9c-1.3-0.9-1.7-2.7-0.8-4.1c0.9-1.3,2.7-1.7,4.1-0.8l25.7,16.9
				c1.3,0.9,1.7,2.7,0.8,4.1C71.3,553.1,70.4,553.6,69.4,553.6z"/>
		</g>
		<g>
			<line class="st5" x1="37.2" y1="631.6" x2="101.7" y2="631.6"/>
			<path class="st3" d="M101.7,634.5H37.2c-1.6,0-2.9-1.3-2.9-2.9s1.3-2.9,2.9-2.9h64.5c1.6,0,2.9,1.3,2.9,2.9
				S103.3,634.5,101.7,634.5z"/>
		</g>
	</g>
	<g class="st1">
		<rect x="151.3" y="392" class="st6" width="337.4" height="240.2"/>
		<path class="st3" d="M488.7,634.5H151.3c-1.3,0-2.3-1-2.3-2.3V392c0-1.3,1-2.3,2.3-2.3h337.4c1.3,0,2.3,1,2.3,2.3v240.2
			C491,633.5,490,634.5,488.7,634.5z M153.6,629.9h332.8V394.3H153.6V629.9z"/>
	</g>
	<g class="st1">
		<polygon class="st7" points="488.7,540.2 404.4,540.2 320,540.2 320,392 488.7,392 		"/>
		<path class="st3" d="M488.7,542.5H320c-1.3,0-2.3-1-2.3-2.3V392c0-1.3,1-2.3,2.3-2.3h168.7c1.3,0,2.3,1,2.3,2.3v148.1
			C491,541.4,490,542.5,488.7,542.5z M322.3,537.9h164.1V394.3H322.3V537.9z"/>
	</g>
	<g class="st1">
		<g>
			<g>
				<g>
					<defs>
						<polygon id="SVGID_1_" points="488.7,540 404.3,540 319.9,540 319.9,393 488.7,393 						"/>
					</defs>
					<clipPath id="SVGID_00000066502132170827795010000008493756880765548980_">
						<use xlink:href="#SVGID_1_"  style="overflow:visible;"/>
					</clipPath>
					<g style="clip-path:url(#SVGID_00000066502132170827795010000008493756880765548980_);">
						<polygon class="st2" points="318.3,548.7 295.3,526 438,384.5 461,407.3 						"/>
					</g>
				</g>
			</g>
		</g>
		<g>
			<g>
				<g>
					<defs>
						<polygon id="SVGID_00000040568843860606683600000016401925425668724360_" points="488.7,540 404.3,540 319.9,540 319.9,393 
							488.7,393 						"/>
					</defs>
					<clipPath id="SVGID_00000140008627275509128720000006983890655995425463_">
						<use xlink:href="#SVGID_00000040568843860606683600000016401925425668724360_"  style="overflow:visible;"/>
					</clipPath>
					<g style="clip-path:url(#SVGID_00000140008627275509128720000006983890655995425463_);">
						<polygon class="st2" points="394.5,593.7 353.6,553.1 489.7,418.1 530.7,458.7 						"/>
					</g>
				</g>
			</g>
		</g>
	</g>
	<g class="st1">
		<path class="st3" d="M488.7,542.5H320c-1.3,0-2.3-1-2.3-2.3V392c0-1.3,1-2.3,2.3-2.3h168.7c1.3,0,2.3,1,2.3,2.3v148.1
			C491,541.4,490,542.5,488.7,542.5z M322.3,537.9h164.1V394.3H322.3V537.9z"/>
	</g>
	<g class="st1">
		<rect x="172.5" y="392" class="st6" width="126.2" height="240.2"/>
		<path class="st3" d="M298.8,634.5H172.5c-1.3,0-2.3-1-2.3-2.3V392c0-1.3,1-2.3,2.3-2.3h126.2c1.3,0,2.3,1,2.3,2.3v240.2
			C301.1,633.5,300,634.5,298.8,634.5z M174.8,629.9h121.6V394.3H174.8V629.9z"/>
	</g>
	<g class="st1">
		<path class="st4" d="M283.5,540.2H270c-0.5,0-0.8-0.4-0.8-0.8v-41.9c0-0.5,0.4-0.8,0.8-0.8h13.5c0.5,0,0.8,0.4,0.8,0.8v41.9
			C284.3,539.8,283.9,540.2,283.5,540.2z"/>
		<path class="st3" d="M276.7,542.5c-5.5,0-9.9-4.4-9.9-9.9v-28.4c0-5.5,4.4-9.9,9.9-9.9s9.9,4.4,9.9,9.9v28.4
			C286.6,538,282.2,542.5,276.7,542.5z M276.7,498.9c-2.9,0-5.3,2.4-5.3,5.3v28.4c0,2.9,2.4,5.3,5.3,5.3s5.3-2.4,5.3-5.3v-28.4
			C282,501.3,279.6,498.9,276.7,498.9z"/>
	</g>
	<g class="st1">
		<line class="st5" x1="123.2" y1="632.2" x2="516.8" y2="632.2"/>
		<path class="st3" d="M516.8,634.5H123.2c-1.3,0-2.3-1-2.3-2.3s1-2.3,2.3-2.3h393.7c1.3,0,2.3,1,2.3,2.3S518.1,634.5,516.8,634.5z"
			/>
	</g>
	<g class="st1">
		<path class="st10" d="M152.1,463.5h-1.8c-15,0-27.1-12.2-27.1-27.1V361h56.2v75.2C179.4,451.3,167.2,463.5,152.1,463.5z"/>
		<path class="st3" d="M151.3,465.8c-16.8,0-30.4-13.6-30.4-30.4V361c0-1.3,1-2.3,2.3-2.3h56.2c1.3,0,2.3,1,2.3,2.3v74.4
			C181.7,452.1,168.1,465.8,151.3,465.8z M125.5,363.3v72.1c0,14.2,11.6,25.8,25.8,25.8s25.8-11.6,25.8-25.8v-72.1H125.5
			L125.5,363.3z"/>
	</g>
	<g class="st1">
		<path class="st10" d="M209.6,463.5H208c-15.8,0-28.6-12.8-28.6-28.6V361h56.2v76.4C235.6,451.8,224,463.5,209.6,463.5z"/>
		<path class="st3" d="M207.5,465.8c-16.8,0-30.4-13.6-30.4-30.4V361c0-1.3,1-2.3,2.3-2.3h56.2c1.3,0,2.3,1,2.3,2.3v74.4
			C237.9,452.1,224.3,465.8,207.5,465.8z M181.7,363.3v72.1c0,14.2,11.6,25.8,25.8,25.8s25.8-11.6,25.8-25.8v-72.1H181.7
			L181.7,363.3z"/>
	</g>
	<g class="st1">
		<path class="st10" d="M264.7,463.5L264.7,463.5c-16.1,0-29.1-13-29.1-29.1V361h56.2v75.3C291.9,451.3,279.7,463.5,264.7,463.5z"/>
		<path class="st3" d="M263.8,465.8c-16.8,0-30.4-13.6-30.4-30.4V361c0-1.3,1-2.3,2.3-2.3h56.2c1.3,0,2.3,1,2.3,2.3v74.4
			C294.2,452.1,280.5,465.8,263.8,465.8z M237.9,363.3v72.1c0,14.2,11.6,25.8,25.8,25.8c14.2,0,25.8-11.6,25.8-25.8v-72.1H237.9
			L237.9,363.3z"/>
	</g>
	<g class="st1">
		<path class="st10" d="M338.9,457.8l-20.9,5.7c-14.4,0-26.1-11.7-26.1-26.1V361h56.2v82.2C348.1,444.9,340.7,457.8,338.9,457.8z"/>
		<path class="st3" d="M320,465.8c-16.8,0-30.4-13.6-30.4-30.4V361c0-1.3,1-2.3,2.3-2.3h56.2c1.3,0,2.3,1,2.3,2.3v74.4
			C350.4,452.1,336.8,465.8,320,465.8z M294.2,363.3v72.1c0,14.2,11.6,25.8,25.8,25.8c14.2,0,25.8-11.6,25.8-25.8v-72.1H294.2
			L294.2,363.3z"/>
	</g>
	<g class="st1">
		<path class="st10" d="M377.2,463.5h-0.4c-15.9,0-28.8-12.9-28.8-28.8V361h56.2v75.4C404.4,451.4,392.2,463.5,377.2,463.5z"/>
		<path class="st3" d="M376.2,465.8c-16.8,0-30.4-13.6-30.4-30.4V361c0-1.3,1-2.3,2.3-2.3h56.2c1.3,0,2.3,1,2.3,2.3v74.4
			C406.7,452.1,393,465.8,376.2,465.8z M350.4,363.3v72.1c0,14.2,11.6,25.8,25.8,25.8c14.2,0,25.8-11.6,25.8-25.8v-72.1H350.4
			L350.4,363.3z"/>
	</g>
	<g class="st1">
		<path class="st10" d="M449.6,458.3l-17.3,5.2c-15.5,0-28-12.5-28-28V361h56.2l-0.8,85.2c0,1.4-0.8,2.5-2.1,3
			C455.9,449.9,451.4,457.3,449.6,458.3z"/>
		<path class="st3" d="M431.7,465.8c-16.6-0.4-29.7-14.4-29.7-31V361c0-1.3,1-2.3,2.3-2.3h56.2c1.3,0,2.3,1,2.3,2.3v74.4
			C462.9,452.4,448.9,466.2,431.7,465.8z M406.7,363.3v71.6c0,14.4,11.8,26.6,26.3,26.3c14-0.2,25.4-11.7,25.4-25.8v-72.1H406.7
			L406.7,363.3z"/>
	</g>
	<g class="st1">
		<path class="st10" d="M490,463.5h-0.9c-15.8,0-28.5-12.8-28.5-28.5v-74h56.2v75.7C516.8,451.5,504.8,463.5,490,463.5z"/>
		<path class="st3" d="M488.7,465.8c-16.8,0-30.4-13.6-30.4-30.4V361c0-1.3,1-2.3,2.3-2.3h56.2c1.3,0,2.3,1,2.3,2.3v74.4
			C519.1,452.1,505.5,465.8,488.7,465.8z M462.9,363.3v71.6c0,14.4,11.8,26.6,26.3,26.3c14-0.2,25.4-11.7,25.4-25.8v-72.1H462.9
			L462.9,363.3z"/>
	</g>
	<g class="st1">
		<polygon class="st10" points="516.8,361 123.2,361 151.3,334.8 488.7,334.8 		"/>
		<path class="st3" d="M516.8,363.3H123.2c-0.9,0-1.8-0.6-2.1-1.5c-0.3-0.9-0.1-1.9,0.6-2.5l28.1-26.2c0.4-0.4,1-0.6,1.6-0.6h337.4
			c0.6,0,1.1,0.2,1.6,0.6l28.1,26.2c0.7,0.6,0.9,1.6,0.6,2.5C518.6,362.7,517.8,363.3,516.8,363.3z M129,358.7h382l-23.2-21.6H152.2
			L129,358.7z"/>
	</g>
	<g class="st1">
		<rect x="151.3" y="286.8" class="st10" width="337.4" height="48"/>
		<path class="st3" d="M488.7,337.1H151.3c-1.3,0-2.3-1-2.3-2.3v-48c0-1.3,1-2.3,2.3-2.3h337.4c1.3,0,2.3,1,2.3,2.3v48
			C491,336,490,337.1,488.7,337.1z M153.6,332.5h332.8v-43.4H153.6V332.5z"/>
	</g>
	<g class="st1">
		<line class="st5" x1="404.4" y1="392" x2="404.4" y2="540.2"/>
		<path class="st3" d="M404.4,542.5c-1.3,0-2.3-1-2.3-2.3V392c0-1.3,1-2.3,2.3-2.3s2.3,1,2.3,2.3v148.1
			C406.7,541.4,405.6,542.5,404.4,542.5z"/>
	</g>
	<g id="mMXHcB_00000180338922488830864790000001778969557820651915_" class="st1">
		
			<image style="overflow:visible;" width="1268" height="980" id="mMXHcB_00000105385933111714204220000008441042897951866754_" xlink:href="72F95E685F87C14D.jpg"  transform="matrix(0.1892 0 0 0.1892 -239.916 134.5813)">
		</image>
	</g>
</g>
<g id="Layer_2">
	<g class="st11">
		<path class="st12" d="M173.7,632.2c10.3,0.9,20.8-0.1,31.1-1c87.6-8.3,175-16.6,262.6-25c9.6-0.9,19.3-1.9,28.1-5.4
			c9.3-3.8,16.9-10.2,24-16.8c48.9-45.2,84.4-101.5,102.2-161.8c4.9-16.6,8.5-34.2,3.5-50.9c-8.6-28.4-41.1-47.4-74.2-51.4
			c-27.6-3.3-59.7,0.9-79.6-16.3c-16.5-14.3-16.8-37.4-13.9-57.6c3-20.2,7.9-41.6-1.4-60.3c-10.8-21.6-37.7-33.2-63.9-38.6
			c-24.1-5-50.1-6.2-73,2.2c-58.6,21.5-72.8,94.2-129.1,119.7c-33.7,15.2-77.2,10.9-106.6,31.7c-28.5,20.1-33.7,56.1-34.1,88.4
			c-0.7,46.2,4.1,93.3,20.7,137.3c14.6,38.4,44.2,92.7,93.2,104.2C166.8,631.4,170.3,631.9,173.7,632.2z"/>
		<path class="st12" d="M611.8,305.5c0,0-14-20.3-36.1-19c-21.9,1.3-22.7-14.9-15.6-20.1c7.2-5.3,33.8-8.3,45.4-4.2
			c18.4,6.5,26.9,21.7,28.2,30.3C634.9,301.1,626.5,319.8,611.8,305.5z"/>
	</g>
	<rect x="160.9" y="291.5" class="st13" width="339.7" height="339.7"/>
	<path class="st13" d="M298.7,474.3v156.3h-108V474.3c0-27.5,24.2-49.8,54-49.8C274.5,424.5,298.7,446.8,298.7,474.3z"/>
	<path class="st14" d="M456.4,600.8H333.2c-4.1,0-7.4-3.3-7.4-7.4V447c0-4.1,3.3-7.4,7.4-7.4h123.2c4.1,0,7.4,3.3,7.4,7.4v146.5
		C463.8,597.5,460.5,600.8,456.4,600.8z"/>
	<path class="st13" d="M467.9,611.4H321.7c-1.6,0-2.9-1.3-2.9-2.9v-10.3c0-1.6,1.3-2.9,2.9-2.9h146.3c1.6,0,2.9,1.3,2.9,2.9v10.3
		C470.9,610,469.6,611.4,467.9,611.4z"/>
	<line class="st15" x1="207.2" y1="504.7" x2="207.2" y2="578.3"/>
	<polyline class="st16" points="128.9,320.3 155,291.5 509.9,292 532.6,320.4 	"/>
	<path class="st17" d="M74.4,560.8L74.4,560.8c-34.1,0-61.7-27.6-61.7-61.7V389.8c0-34.1,27.6-61.7,61.7-61.7h0
		c34.1,0,61.7,27.6,61.7,61.7v109.3C136.1,533.2,108.5,560.8,74.4,560.8z"/>
	<line class="st15" x1="37.2" y1="631.6" x2="602.8" y2="631.6"/>
	<g class="st0">
		<path class="st18" d="M187.4,321.2V391c0,15.5-12.8,28-28.6,28c-15.8,0-28.6-12.5-28.6-28v-69.8H187.4z"/>
		<path class="st18" d="M244.6,321.2V391c0,15.5-12.8,28-28.6,28c-15.8,0-28.6-12.5-28.6-28v-69.8H244.6z"/>
		<path class="st18" d="M301.9,321.2V391c0,15.5-12.8,28-28.6,28c-15.8,0-28.6-12.5-28.6-28v-69.8H301.9z"/>
		<path class="st18" d="M359.6,321.2V391c0,15.5-12.8,28-28.6,28c-15.8,0-28.6-12.5-28.6-28v-69.8H359.6z"/>
		<path class="st18" d="M416.9,321.2V391c0,15.5-12.8,28-28.6,28c-15.8,0-28.6-12.5-28.6-28v-69.8H416.9z"/>
		<path class="st18" d="M474.1,321.2V391c0,15.5-12.8,28-28.6,28c-15.8,0-28.6-12.5-28.6-28v-69.8H474.1z"/>
		<path class="st18" d="M531.4,321.2V391c0,15.5-12.8,28-28.6,28c-15.8,0-28.6-12.5-28.6-28v-69.8H531.4z"/>
	</g>
	<g>
		<g>
			<line class="st15" x1="74.4" y1="433.9" x2="74.4" y2="631.2"/>
			<circle cx="74.4" cy="434.1" r="3.5"/>
		</g>
		<path d="M73.4,493.3L73.4,493.3c1.7,0.7,3.7,0,4.4-1.7l25.2-58.1c0.7-1.7,0-3.7-1.7-4.4h0c-1.7-0.7-3.7,0-4.4,1.7l-25.2,58.1
			C71,490.6,71.7,492.6,73.4,493.3z"/>
		<path d="M75.1,535L75.1,535c1.6-0.9,2.2-3,1.2-4.6l-31.7-54.9c-0.9-1.6-3-2.2-4.6-1.2h0c-1.6,0.9-2.2,3-1.2,4.6l31.7,54.9
			C71.5,535.4,73.5,536,75.1,535z"/>
	</g>
	<path class="st13" d="M509.9,292H151.6c-4.6,0-8.3-3.7-8.3-8.3V275c0-4.6,3.7-8.3,8.3-8.3h358.3c4.6,0,8.3,3.7,8.3,8.3v8.7
		C518.3,288.3,514.5,292,509.9,292z"/>
	<g>
		<path class="st13" d="M513.7,121.3"/>
		<path class="st13" d="M390,152.9c0-19.5,12.1-28.6,29.3-24.7h0c-2.6-5.5-4-11.6-4-18.1c0-23.6,19.2-42.8,42.8-42.8
			c16.3,0,30.5,9.2,37.7,22.6c3.6-6.1,10.3-10.2,17.9-10.2c11.5,0,20.8,9.3,20.8,20.8c0,0.7,0,1.3-0.1,2
			c9.5-7.4,21.4-11.8,34.4-11.8c30.9,0,60.7,47.8,21.3,81.6"/>
		<path class="st13" d="M458,152.9"/>
		<line class="st15" x1="613.4" y1="172.3" x2="548.3" y2="172.3"/>
		<line class="st15" x1="505.2" y1="172.3" x2="440.1" y2="172.3"/>
		<line class="st15" x1="427.6" y1="172.3" x2="406.6" y2="172.3"/>
		<line class="st15" x1="448.7" y1="152.9" x2="365.4" y2="152.9"/>
	</g>
	<g>
		<g>
			<path class="st13" d="M197.6,374.9c0,14.7-11.9,26.6-26.6,26.6c-14.7,0-26.6-11.9-26.6-26.6"/>
			<path class="st13" d="M250.9,374.9c0,14.7-11.9,26.6-26.6,26.6s-26.6-11.9-26.6-26.6"/>
			<path class="st13" d="M304.1,374.9c0,14.7-11.9,26.6-26.6,26.6s-26.6-11.9-26.6-26.6"/>
			<path class="st13" d="M357.4,374.9c0,14.7-11.9,26.6-26.6,26.6s-26.6-11.9-26.6-26.6"/>
			<path class="st13" d="M410.6,374.9c0,14.7-11.9,26.6-26.6,26.6s-26.6-11.9-26.6-26.6"/>
			<path class="st13" d="M463.9,374.9c0,14.7-11.9,26.6-26.6,26.6s-26.6-11.9-26.6-26.6"/>
			<path class="st13" d="M517.2,374.9c0,14.7-11.9,26.6-26.6,26.6s-26.6-11.9-26.6-26.6"/>
		</g>
		<path class="st13" d="M517.2,374.9c0,0.1,0,0.2,0,0.2l-372.8-1.7c-0.1,0,15.8-80.8,15.8-80.8c0,0,0,0,0,0h343.1c0,0,0,0,0,0
			C503.2,292.6,516.4,370.5,517.2,374.9z"/>
	</g>
</g>
</svg>
